/* XPM */
static char *_263d2d459b24bf6e7dba8f3ec8d2b9ftrVM6ccbpUwQu4PU[] = {
/* columns rows colors chars-per-pixel */
"50 50 105 2 ",
"   c #141515",
".  c #171818",
"X  c #1B1C1C",
"o  c #1F1F20",
"O  c #242424",
"+  c #2A2A2A",
"@  c #302F2F",
"#  c #383736",
"$  c #3C3C3C",
"%  c #42403F",
"&  c #494746",
"*  c #545150",
"=  c #5A5756",
"-  c #666565",
";  c #6A6765",
":  c #6D6B6A",
">  c #706E6D",
",  c #74706F",
"<  c #757373",
"1  c #797675",
"2  c #7C7B7A",
"3  c #817D7B",
"4  c #84807F",
"5  c #848382",
"6  c #898583",
"7  c #8D8885",
"8  c #8C8C8C",
"9  c #908A87",
"0  c #928D8B",
"q  c #949393",
"w  c #9A9593",
"e  c #9B9A9A",
"r  c #A19B97",
"t  c #A49E9A",
"y  c #A9A29F",
"u  c #A2A2A3",
"i  c #ACA5A3",
"p  c #ACABAB",
"a  c #B6AFAC",
"s  c #BAB2AE",
"d  c #AFB0B0",
"f  c #B3B4B4",
"g  c #BEB6B2",
"h  c #BBBBBB",
"j  c #C2BAB7",
"k  c #C3BCB8",
"l  c #CCC3BF",
"z  c #BFC0C0",
"x  c #C2C3C3",
"c  c #CEC5C2",
"v  c #CCCDCD",
"b  c #D1C7C2",
"n  c #D4CBC6",
"m  c #D4CBC9",
"M  c #D9CFCA",
"N  c #DBD1CC",
"B  c #D4D4D4",
"V  c #DFD5D0",
"C  c #DCDCDC",
"Z  c #E1D7D2",
"A  c #E4DAD5",
"S  c #E7DDD8",
"D  c #E9DFDA",
"F  c #EBE1DC",
"G  c #E9DFE0",
"H  c #E3E3E3",
"J  c #EFE5E1",
"K  c #ECECEC",
"L  c #EEEEEE",
"P  c #F0E6E1",
"I  c #F1E7E1",
"U  c #F0E6E3",
"Y  c #F1E7E3",
"T  c #F1E7E4",
"R  c #F3E9E3",
"E  c #F2E8E5",
"W  c #F2E8E6",
"Q  c #F2E9E6",
"!  c #F3E9E6",
"~  c #F4EAE4",
"^  c #F6EBE6",
"/  c #F6ECE6",
"(  c #F5EBE9",
")  c #F2EDEA",
"_  c #F6ECEB",
"`  c #F6EDEB",
"'  c #F7EDEC",
"]  c #F8EDEA",
"[  c #F8EEEC",
"{  c #F8EEED",
"}  c #F9F0EF",
"|  c #FAF0EF",
" . c gray94",
".. c #F3F3F2",
"X. c #F3F3F3",
"o. c #F5F5F5",
"O. c #FCF2F2",
"+. c #FDF3F3",
"@. c #FEF4F4",
"#. c #FFF4F4",
"$. c #FFF5F6",
"%. c #FFF8F6",
"&. c #FEF9F9",
"*. c #FFFCFC",
"=. c #FFFDFD",
/* pixels */
"&.#.#.#.+.#.#.#.#.#.#.#.#.O.#.#.#.#.#.+.+.#.#.#.o.F F F D F F D F F F F F F F F F F F A F F F F I ~ ",
"#.#.#.#.#.&.#.#.#.#.#.%.#.#.#.#.#.#.#.&.+.+.#.%.+.F F F F F F F F F F F F F F F F F F F F F I N n I ",
"#.#.#.#.O.O.#.O.#.#.O.o.#.+.o.+.+.+.o.O.+.O.O.+.+.F F S D D D D F F F F A F F F F F F F A I l , < l ",
"#.#.O.F F F F J +.#.{ F F F F F F F F F F F F W +.F A N N N N A F F N N N N N N M N N N A j % % 0 : ",
"#.#.O.F F F S F #.#.' F F F F F F F F F F F F W +.F Z N N N N A F F N N N N N N M M N A r @ O O # w ",
"+.+.O.F F F F J +.#.{ F F F F F F F F F F F S E +.F Z M N N N A F F N N N N N N N N A 4 O O + O w I ",
"+.#.O.F F F F F #.#.{ F F S F F F S F S S F S U +.F Z N N N N A F F Z N N N N N Z M ; O + O @ a ~ F ",
"#.&.O.F F F F J #.#.{ F J F F J J J J F J J F ` +.F Z N N N M A F F A N N N N A l * . + X % k ~ F F ",
"#.#.+.F D F F F +.#.+.+.#.+.+.+.+.+.+.+.+.#.+.+.+.F Z M N N N A F F F A F A I k & X + X = N F S F F ",
"#.#.o.F F F D J +.#.#.#.#.#.#.#.+.+.+.+.#.+.+.+.+.F Z N N N N A F F F F F E y + O + . , F Y F F F F ",
"#.#.O.F F F F F o.#.O.' ` ' ' } +.#.O.` } } ] +.+.F A M N N M A F F A F F 9 X + O O 4 F A Z A F F F ",
"#.#.+.F F F F J O.#.' F F F F J #.#.) F F F A E +.F A N N N N A F F A n ;   + o + y A M N N N S F F ",
"#.#.O.F F F F F O.#.' F F F F J #.#.) F F F F E +.F Z M N N M A F I l * . + . # a ~ N N N N N F F F ",
"#.#.O.F F F D J #.#.' F F F F J &.#.) F F F D E +.F Z N N Z N Z E g $ . @ . & l I A N N N N N F F F ",
"#.#.o.F S D D F #.#.' S F F F J +.+.` F F F F W +.F Z N N n N F y + X #   = l F F F N N N N N S F F ",
"+.&.O.W W Y Y T +.#.O.J J J J W #.+.) F F F F W +.F Z A l ; 6 3 O O + X 1 N A A F F N N N N N F F F ",
"#.#.#.+.#.#.#.#.#.#.#.#.#.#.#.+.#.#.) F F F F E +.F D F D , 1 ; + O o 0 Y F F F F S N N N N N F F D ",
"#.#.#.+.&.#.#.#.&.#.#.#.%.&.#.+.#.%.` F F F D W O.F F ~ l < h B : + i ~ F F F F F D N N N N N F F F ",
"#.#.o.` ) { ` ` ) { ' ) ' ' ` } #.#.' F F F D Y +.F E s < x K C 6 7 E A A A A A F F V N N N N A F F ",
"#.#.+.F D F A F S F S F S F A J #.#.' S F F D Y O.~ y : v L B 2 ; , l N N N N A F F N N N N N F F F ",
"#.&.+.F F F F F F F F F F F F J &.#.` S F F D E &.t 4 C ..l < i y 9 M N N N N A F F N N N N N A F F ",
"#.#.+.F F F F F F F F F F F F J #.#.` F F F F ` q 5 H L p > k V Z Z N N N N N A F F N N N N N F F D ",
"#.#.o.F D D F D F A F F F F F J #.#.' S S F F 7 q K K q 1 c V V M M M N N M M A F F N N N N N F F D ",
"#.#.+.T Y E E W W W W W W W J ) O.&.o.J { A 1 u K H 5 8 V F N V Z Z Z Z Z Z Z D F S A N A V A F F F ",
"#.#.#.#.#.&.#.#.#.#.#.&.#.#.#.#.+.+.o.=.J 2 d ..B 2 y W F F F F F F F F F F F F F F F F F F F F F F ",
"#.#.#.&.#.#.#.#.#.#.#.#.#.#.#.+.+.O.=.m < z o.x 1 a ~ F F F F F F D F F F F F F F F F F F F F F F F ",
"#.#.#.J Q Q Q ) +.#.} W ) W W E T #.j < v X.f < V ` A V N A V A F F A Z Z Z Z Z Z Z Z Z Z Z Z D F F ",
"#.#.#.F F S F F +.#.` A F S F F W t 2 B X.u 1 A =.F V N N N N A F D Z M N N N M N N N M N N N D F D ",
"#.#.#.F F F F F +.#.} F F F F W w 5 H K q 6 S ] ` F A N N N N S F F N N N N N N N N N N N N N D F D ",
"#.#.O.F F F F J +.%.} F F F Y 0 8 K H 6 7 F F W +.F A n N N N A F F Z N N N N N N N N N N N N F F F ",
"#.&.O.F F F F F +.#.` A F F 2 q K C 2 t ~ F F W +.F A N N N N A F D N N N N N M M N N N M N N D F F ",
"+.+.O.F S F F J +.+.} +.W 5 u o.B < a %.~ ~ ` } +.F V N N N N A F F D A S A A A A A A A A A A D F F ",
"+.#.+.F D F F T +.+.&.Q 5 u o.v 2 c =.o.+.+.#.#.#.F A N N N N A F F F F F F F F F F F F F F F F F F ",
"+.&.o.F F F F F +.&.T 2 f o.z < B =.O.+.#.#.+.+.o.F V M N N N A F F F F F D F D F F F D F D D F D F ",
"#.#.+.D F F F D &.J 2 d o.h > m =.O.{ J W Y F ` O.F A N N N M A F F Z Z N Z Z S D D Z Z N Z Z D F F ",
"#.#.+.F D D D ! J 2 h o.f , N _ +.%.' S F F S W O.J V M N N M A F F N M N N M A F D N N N M N D F F ",
"#.&.+.F F D T Z 3 h o.p 1 M T J #.#.{ F F F F W +.F Z N N N N A F F N N N N N A F D N N N N N F F D ",
"+.+.+.D D T Z > f o.u 2 A T S T #.%.) F F F A Y +.F A N N N N A F F Z N N N N A F D Z N N N N D F F ",
"+.+.+.D F A 1 f o.u 1 A D D D J #.#.{ F F F A ~ +.F A N N N M A F F N M N N N A F D N N N N N F F F ",
"+.&.o.{ { 5 p o.u 6 ] +.{ { { { +.#.` F F F F W +.F A A A A A D D F D A A A A F F D Z N N N N D F D ",
"+.+.o.=.0 e o.i 6 #.#.+.#.#.#.&.#.&.Q F F F S E +.F D J F F F F F D F F F F F D D D Z N N N N D F F ",
"+.+.=.i 8 o.e 4 +.#.O.O.#.#.+.+.#.#.{ F F F F W +.F D D D F F F D D D D D D D D F D N N N N N D F F ",
"+.=.v 2 L p 2 F T J J J J J J T #.#.) F F F F W +.D A N N V Z M N Z N Z Z N N D F D N N N N N D F D ",
"&.Q < B d 2 S F S F S F S F D J #.+.' S F F S W &.D V M N N N N N N N N N N N A F D Z N N N N D F F ",
"=.w f z 1 A J F F F F F F F F J &.+.) F D D D ! +.F A M N N N N N N N N N N N A F F N M N N N D F F ",
"B 0 x < Z F F F F F F F F F F J #.#.{ F F J D T +.D Z N N M N N N N N N N N N A F F N N N N N D F F ",
"p q 2 m J D F D F F D F F D F J #.#.{ D F F D W +.F A M V M N N N N N N N N N A F D Z N N N N F F F ",
"- > S &.} +.+.O.+.+.O.+.+.O.+.+.+.+.+.+.+.+.O.+.+.F F F D D D D D D D D D D D D F F D D D D D F F F ",
"e m =.+.#.&.+.+.&.+.$.+.&.+.&.+.+.+.+.&.+.&.$.+.+.F F F F F D J F F F F F F F F D F F F F F F F F D ",
"&.&.+.+.+.#.#.+.#.#.+.+.+.+.$.+.+.&.+.+.+.+.$.+.+.F F F F F D F F F D F F F F F F F F D F F F F D ) "
};
