/* XPM */
static char *de2b30b2b3184f94af5e153631efdf12h7Zn5nSBrOCAjkrp[] = {
/* columns rows colors chars-per-pixel */
"50 50 210 2 ",
"   c #000F27",
".  c #04122B",
"X  c #0A162D",
"o  c #0C182F",
"O  c #091732",
"+  c #0E1B32",
"@  c #111D33",
"#  c #111E3A",
"$  c #152135",
"%  c #192035",
"&  c #16233D",
"*  c #19253D",
"=  c #2D2D39",
"-  c #42373E",
";  c #44413F",
":  c #132442",
">  c #192640",
",  c #1B2844",
"<  c #172848",
"1  c #192F53",
"2  c #242E43",
"3  c #2A3346",
"4  c #263248",
"5  c #2C364B",
"6  c #373C4C",
"7  c #2F3A52",
"8  c #333D53",
"9  c #2F405B",
"0  c #394358",
"q  c #384A67",
"w  c #3E5170",
"e  c #534D49",
"r  c #454B5C",
"t  c #614944",
"y  c #665549",
"u  c #72534D",
"i  c #7E594C",
"p  c #7B654E",
"a  c #78605D",
"s  c #4B5365",
"d  c #44546D",
"f  c #5A5F6C",
"g  c #435673",
"h  c #4A5C77",
"j  c #4C5C75",
"k  c #535F72",
"l  c #505F78",
"z  c #5A6476",
"x  c #786B6A",
"c  c #7A7368",
"v  c #717278",
"b  c #A2564C",
"n  c #A75A4D",
"m  c #A65D53",
"M  c #85674C",
"N  c #846C51",
"B  c #976550",
"V  c #9C6951",
"C  c #907451",
"Z  c #BA754F",
"A  c #A86955",
"S  c #B26C54",
"D  c #A17953",
"F  c #BA7653",
"G  c #BD7955",
"H  c #B57559",
"J  c #B97758",
"K  c #BE7C5A",
"L  c #8A7668",
"P  c #AB6C64",
"I  c #A97774",
"U  c #C17F4F",
"Y  c #C37C56",
"T  c #C27E5A",
"R  c #F3476C",
"E  c #EE5979",
"W  c #F35170",
"Q  c #EB676B",
"!  c #E77766",
"~  c #A78356",
"^  c #B48B56",
"/  c #BE9158",
"(  c #96877B",
")  c #A98A63",
"_  c #B89465",
"`  c #C38356",
"'  c #C5825B",
"]  c #C8815B",
"[  c #C78A5B",
"{  c #CA8D59",
"}  c #CA9458",
"|  c #CC935D",
" . c #CC9A5D",
".. c #D4975A",
"X. c #D39D5E",
"o. c #D8A257",
"O. c #D6A25E",
"+. c #DAA55E",
"@. c #DAA95E",
"#. c #E2A95D",
"$. c #C28363",
"%. c #C78C6D",
"&. c #C99861",
"*. c #CE9E60",
"=. c #D09F61",
"-. c #C48E74",
";. c #C99578",
":. c #E48D63",
">. c #DAA661",
",. c #DDA962",
"<. c #DAA86A",
"1. c #C9A372",
"2. c #DCAE73",
"3. c #DEB47E",
"4. c #E3AB61",
"5. c #E3A863",
"6. c #E9B166",
"7. c #E1B57D",
"8. c #5D6C84",
"9. c #626D82",
"0. c #69758A",
"q. c #737581",
"w. c #6D7C98",
"e. c #727D93",
"r. c #EB7F90",
"t. c #7D89A0",
"y. c #4F95FF",
"u. c #5597F8",
"i. c #6495E4",
"p. c #85858C",
"a. c #8A8A95",
"s. c #9A9490",
"d. c #92939D",
"f. c #B0928B",
"g. c #BDAC8E",
"h. c #828EA5",
"j. c #8993A9",
"k. c #989BA9",
"l. c #949EB6",
"z. c #AD9AA3",
"x. c #9BAFA8",
"c. c #96A6B6",
"v. c #A8A6AB",
"b. c #B6ABA7",
"n. c #A9AAB9",
"m. c #B3ACB4",
"M. c #B4B3B8",
"N. c #CB9D84",
"B. c #CA9D8D",
"V. c #C89F97",
"C. c #F18B9B",
"Z. c #D1A88C",
"A. c #D2AC98",
"S. c #D4B29C",
"D. c #E2BA86",
"F. c #E1BC90",
"G. c #EA97A3",
"H. c #D0ACA3",
"J. c #D8B8A9",
"K. c #C8BEBB",
"L. c #E6B5B1",
"P. c #E5C399",
"I. c #DBC2A5",
"U. c #CFC2B9",
"Y. c #DAC5B8",
"T. c #E4C6A4",
"R. c #E4CAB5",
"E. c #E9D3BA",
"W. c #A2ABC3",
"Q. c #ADB5CC",
"!. c #B6BBCB",
"~. c #AEBAD3",
"^. c #B3BBD2",
"/. c #87B3FC",
"(. c #C5BFC4",
"). c #BFC1C0",
"_. c #AFCCFF",
"`. c #C7C3C4",
"'. c #D4C7C4",
"]. c #D2C9C5",
"[. c #D5CDCA",
"{. c #DACECA",
"}. c #DCD2CD",
"|. c #D8D3D2",
" X c #DED5D1",
".X c #E9D4C6",
"XX c #E8D5C9",
"oX c #E1D7D2",
"OX c #E4DAD5",
"+X c #E9DCD3",
"@X c #E6DDD9",
"#X c #E9DFDA",
"$X c #EBE1DC",
"%X c #F0E5DF",
"&X c #CBD4EB",
"*X c #DADDE4",
"=X c #D5D9EC",
"-X c #ECE5E2",
";X c #EAE8E8",
":X c #F1E7E2",
">X c #F4E9E4",
",X c #F9ECE6",
"<X c #F5ECEB",
"1X c #F8EEED",
"2X c #FFF1E1",
"3X c #FCF1EC",
"4X c #E4E8F3",
"5X c #FEF4F4",
"6X c #FFF6F8",
"7X c #FFFCFC",
/* pixels */
"6X5X5X5X5X5X5X5X5X5X5X5X5X5X5X5X5X5X5X5X5X5X5X5X5X$X$X$X$X$X$X@X$X$X$X$X#X$X$X$X#X$X$X#X$X$X$X#X$X<X",
"5X5X5X5X6X5X6X6X5X5X6X5X5X6X5X5X6X5X5X6X5X5X5X5X5X$X@X$X@X$X$X$X-X$X$X$X$X$X$X$X$X$X$X$X$X$X$X$X$X@X",
"5X5X5X5X5X5X3X5X5X5X5X5X5X5X5X5X5X5X5X5X5X5X5X5X5X#X-X:X$X#X$XL.C.XX-X$X@X#X#X#X$X#X#X#X$X#X#X$X$X$X",
"5X6X5X$X$X$X$X-X5X5X1X$X$X$X#X$X#X$X$X$X#X$X#X>X5X,Xm.p.'.oX{.E R G.4X;X}.}.}.}.}.}.}.}.}.}.}.@X$X$X",
"5X5X5X$X$X$X@X$X5X5X1X#X$X#X$X$X#X#X#X$X#X#X#X3X-Xq.* , v |.r.R W W L.;X}.}.}.}.}.}.}.}.}.}.}.$X$X$X",
"5X5X5X$X$X$X$X$X5X5X1X#X$X$X$X$X$X$X$X#X#X>X#Xd.7 > 0 j l Z.W R R R G.4X}.{.}.}.}.}.}.}.}.}.}.@X$X$X",
"5X5X5X$X$X$X$X$X5X5X1X#X$X#X#X#X$X#X#X:X:Xv.r # 7 h j h z *.:.Q Q ! <.+X{.|.}.}.}.}.}.}.{.}.}.$X$X$X",
"5X5X5X$X$X$X$X%X5X5X1X%X-X-X$X-X-X-X1XK.z & 4 g h h h h k =.@.@.@.@.,.E.2.I. X|.}.}.}.}.}.}.}.$X$X$X",
"5X5X5X$X#X$X$X:X5X5X5X5X5X5X5X5X6X1Xa.2 > d j j h h j h k *.@.+.>.O.,.E.>.O.3.E.-X$X@X@X@X$X@X$X$X$X",
"5X5X5X$X$X$X#X$X5X5X5X5X5X5X5X5X7Xv.O 9 j j h j d j j h k *.@.+.>.@.<.E.4.O.+.+.F.XX-X$X$X$X$X$X@X$X",
"5X5X5X$X$X$X$X$X5X5X5X<X1X1X1X1X7Xk.> j j j j d 8.l j j z *.@.+.>.) v M._ >.>.>.o.<.I.+X@X+X+X@X$X$X",
"5X5X5X$X$X$X$X-X5X5X<X#X#X#X#X$X7Xk.> j j j h k.4Xj.d j j  .+.5.} 0 c w r >.>.>.,.+.o.2.I.}.}.@X$X$X",
"5X5X5X$X$X$X$X$X5X5X1X#X$X#X#X;X2X( : h j j j ^.4Xc.h w f O.@.+.+.^ e y / 5.O.,.+.>.>.@...S.}.$X$X$X",
"5X6X5X$X$X$X$X-X5X5X1X#X$X-X+XT.6.M < h j j d h.=Xc.w c &.@.>.>.>.5.,.5.#.+.+.O.+.+.O.| Z N.oX$X$X$X",
"5X5X5X$X@X$X#X$X5X5X1X$X$XR.2.o.5.N : j j j j j.=XW.~ 5.@.>.+.>.,.O.>.+.O.>.O.,.>.&.' T ;.U.}.#X$X@X",
"5X5X5X:X:X-X:X:X5X5X5X.XD.O.o.+.6.N < j l j w j.&XU.#.+.>.+.+.>.O.>.+.>.+.>.>.X.[ T H L v. X}.#X$X$X",
"5X5X5X5X5X5X5X5X7X,XP.>.@.,.<. .#.p : h j j L b.&X!._ ,.O.>.>.O.>.>.+.>.+.O.{ ] K u s q 8 ].}.#X$X$X",
"5X5X5X5X5X5X7X3XE.<.@.>.@.@.I.@.#.^ 6 g c _ _ v.=Xn.w C #.>.+.,.+.+.@.+.| ' ] M = . # : 3 ].}.@X$X$X",
"5X6X5X<X1X1X.X7.o.@.>.>.O.g.).1.+.#. .) @.~ 1 w.t.9 0 ~ ,.O.>.+.+.+.X.] ] A - . e ; + > 7 '.}.#X$X$X",
"5X6X5X$X.XF.+.O.+.+.,.@.1.x.2.l.f.+.+.,.+. .M 2 5 p  .5.+.+.>.@.O.[ ] J t O = ~ #.D @ > 7 ].oX#X$X@X",
"5X5X3X:XB.` +.@.+.+.,.+.1.u.u.i.f.@.>.O.>.+.6.} ^ 6.+.>.+.>.O.| T Y i @ % N X.| Y B @ > 7 '.}.#X$X$X",
"5X6X5X:XV.b S | @.+.O.#.U.y.y.u.U.#.>.+.,.+.O.5.#.O.>.>.>.X.K Y B = O y  .X.T J T B @ : 7 '. X@X$X$X",
"5X5X5X$X+XH.P n J X.#.+.R._./._.R.o.,.,.O.+.,.>.>.+.+.X.' F %.L . e ^ >.] J G K T V @ > 8 '.}.#X$X$X",
"5X5X5X:X>X<X$XV.m n ' X.6.P.T.P.@.@.+.+.,.+.O.+.,.O.{ F K A.$Xs.M 5.{ G G T K K T A @ > 8 [.oX#X$X$X",
"6X5X5X6X5X7X5X;Xm.I n A ] X.X...+.>.+.>.>.+.>.+.| K G N.XX$XP.,...K J K K K K K ` V @ & 0 OX$X$X+X$X",
"5X5X5X6X6X|.e.8.~.~.z.P b J | 5.+.+.>.>.+.>.X.[ F %.Y.$XR.2.{ ' J K K K K K K J ' V $ & 0 OX$X$X$X$X",
"5X6X3X>X-X0 9 8.~.Q.~.Q.f.m n Y X.,.,.>.O.[ F $.R.%XE.7.} ` K K T K K K K K K K ' V @ & 9 {.OX$X$X$X",
"5X6X5X$XOX3 X 7 t.^.~.~.~.W.f.m A ` X.{ G K Z.$X,XS.O.[ K K K K K K K K T K K K ] V $ * 0 U.{.$X$X$X",
"5X5X5X-XOX5 X + + d l.).Q.Q.=X{.I b S Y ;..X$XT.<.` K K ' K K K K K K K K K T G ' A $ & 0 ].}.$X$X$X",
"5X5X5X$XOX5 X @ @ X * z W.^.=X*X#XJ.-.J.$XE.2.{ ` K K K K K K K K K K K K K K G T i + > 0 ].}.$X$X$X",
"5X5X3X$XoX5 X $ @ @ + X 4 e.!.0.9.(.:XXXD...` J K K K K K K T K K K K K K K F ;.x . @ & 0 ].[.$X$X$X",
"5X5X5X-XOX3 X @ @ + @ @ X + 5 d h q s.5.` K K K T K K K K K K K K K ' K F $.S.oX[.p.2 s m.$XOX$X$XOX",
"5X6X3X-XoX3 O $ @ @ @ @ @ @ o * 8 : u ] G K K K K K K T K K T K T T G T Z.XX-X$X-X,X[.@X>X$X$X$X$X$X",
"5X6X5X$X X3 o @ @ @ + @ @ @ $ o # : u ] K K T K K K K K K K K K J J N.R.:X$X$X$X#X@X$X$X#X#X$X#X$X$X",
"5X6X5X$XoX3 o @ @ + @ @ @ @ @ + * : u ] J K K K K T K K K K K J -.J.oX X}.}.}.@X#X#XoX X}. XoX#X$X$X",
"5X5X5X$X X3 o @ @ @ @ @ @ + @ + * : u T K K K K K K K K T G ^ A.#X-X X{.}.}.}.OX$X#X X{.}.{.}.#X$X+X",
"5X6X5X$X X2 o @ @ @ @ @ @ @ $ + & & u ' K K K K K K K G K N.Y.$X$X#XoX{.}.}.}.OX$X$X}.}.}.}.}.$X$X$X",
"5X5X5X:X X2 o @ @ @ @ @ + + @ + * : u ] J K K K ' G G -.J. X}.OX$X$X X}.}.}.}.OX$X$X}.}.}.}.}.#X$X$X",
"5X5X3X$X X2 X @ @ @ @ @ @ @ @ + * : u ] K K T K F $.J.}.|.}.{.oX$X$XoX{.}.}.{.OX$X#X}.}.}.}.}.#X$X$X",
"5X6X5X3X-X2 + @ @ @ @ @ @ @ @ @ * : u ] K K G $.S.+X-XoXOXOXOX$X#X$X+XOXOXOXOX#X$X#X}.}.}.}.}.#X$X$X",
"5X5X5X6X:X* . $ @ @ + @ @ @ @ + * & u ] G G N.XX7X$X$X$X$X$X$X$X@X$X$X$X$X$X$X$X$X#X}.}.}.}.}.#X$X$X",
"5X5X5X5X5Xv.7 . @ @ $ X @ + $ @ * : u ` -.Y.$X<X3X$X$X$X$X$X$X$X$X$X$X$X$X@X$X$X#X#X}.}.}.}.}.#X$X$X",
"5X6X5X-X-X3X}.v % . $ $ $ o + X * & a J.@X$X$X>X3X$X$X{.{.}.}. X}.}.}.}.}.}.}.@X$X#X}.}.}.}.}.$X$X$X",
"5X5X3X$X$X@X$X,XU.f X X $ $ + $ * & d.1X$X$X@X:X5X$X X{.{.}.{.}.}.}.}.}.}.}.}.oX$X#X X}.}.}.}.#X$X$X",
"5X5X5X$X$X$X$X@X:X-Xv.0 . + $ + & & d.,X$X$X$X:X5X$X X}.}.}.}.}.}.}.}.}.}.}.}.oX$X@X}.}.}.}.}.@X$X$X",
"5X6X5X$X$X$X$X@X$X$X,X@Xa.= . + , # a.,X@X$X$X;X5X$X X}.}.{.}.}.}.}.{.}.}.}.{.+X$X$X}.{.}.}.}.@X$X$X",
"5X5X3X$X$X$X$X$X$X$X@X$X3X[.v $ O 0 `.$X$X$X$X:X3X$XOX}.[.}.}.}.}.}.}.}.}.}.}.+X$X$XoX}.}.}.}.#X$X$X",
"5X5X5X5X5X5X3X5X5X3X5X5X1X5X7X).d.<X6X1X5X5X3X5X5X$X$X$X$X$X$X$X@X$X@X$X$X@X@X@X$X$X@X$X#X#X@X$X$X$X",
"5X6X5X5X6X6X5X5X6X5X5X6X5X5X5X7X7X6X5X5X6X5X5X6X3X$X$X$X$X$X$X$X$X$X$X$X$X$X$X$X$X$X$X$X$X$X$X$X$X@X",
"7X5X5X5X5X5X5X5X5X5X5X5X5X5X5X5X5X5X5X5X5X5X5X5X5X$X$X$X$X$X$X$X$X$X$X$X@X$X$X$X$X$X$X+X$X$X$X$X$X>X"
};
