/* XPM */
static char *_dfdfe21c0544e82d91c8f83a36ce704ik1uio73ssE6N7Uv[] = {
/* columns rows colors chars-per-pixel */
"50 50 168 2 ",
"   c #020303",
".  c #0E0E0D",
"X  c #151414",
"o  c #191817",
"O  c #1E191E",
"+  c #2B140A",
"@  c #201A1F",
"#  c #341C10",
"$  c #3C2215",
"%  c #3C251B",
"&  c #1E1A20",
"*  c #221D22",
"=  c #262126",
"-  c #282427",
";  c #26232C",
":  c #2B242C",
">  c #2E282E",
",  c #362C2E",
"<  c #32302F",
"1  c #2F2730",
"2  c #2F2932",
"3  c #342C34",
"4  c #382F36",
"5  c #372F38",
"6  c #382F38",
"7  c #363133",
"8  c #3B333B",
"9  c #42281C",
"0  c #442B20",
"q  c #473127",
"w  c #51362A",
"e  c #40373C",
"r  c #5E3F32",
"t  c #5E443E",
"y  c #674132",
"u  c #3B3947",
"i  c #443C42",
"p  c #463F49",
"a  c #494145",
"s  c #48444A",
"d  c #5A4642",
"f  c #524D4E",
"g  c #4D4855",
"h  c #544D53",
"j  c #575055",
"k  c #5A5257",
"l  c #55515D",
"z  c #5E575A",
"x  c #654C44",
"c  c #68554F",
"v  c #7A5443",
"b  c #675B55",
"n  c #625D5C",
"m  c #765E57",
"M  c #6E625C",
"N  c #5D5562",
"B  c #645C60",
"V  c #6B6465",
"C  c #6F6869",
"Z  c #756862",
"A  c #716A6B",
"S  c #6B6373",
"D  c #70697A",
"F  c #7A7177",
"G  c #865845",
"H  c #855F54",
"J  c #826053",
"K  c #8C6356",
"L  c #8C6A5D",
"P  c #9B6853",
"I  c #A96F59",
"U  c #82726B",
"Y  c #8A786F",
"T  c #987469",
"R  c #887A75",
"E  c #847C7D",
"W  c #927F77",
"Q  c #A27C6F",
"!  c #B57A63",
"~  c #B87E66",
"^  c #95847C",
"/  c #B6816C",
"(  c #BC846E",
")  c #A8867E",
"_  c #BA8672",
"`  c #BB8A78",
"'  c #C4866D",
"]  c #C58770",
"[  c #C28C76",
"{  c #C88A72",
"}  c #D28C72",
"|  c #CC927B",
" . c #D2947B",
".. c #DA9378",
"X. c #DF987D",
"o. c #E29A7D",
"O. c #E4997C",
"+. c #817A8F",
"@. c #897F93",
"#. c #8A8282",
"$. c #8F8D8C",
"%. c #908885",
"&. c #948D8C",
"*. c #8B859E",
"=. c #9D9494",
"-. c #A68E85",
";. c #AA9187",
":. c #A2938D",
">. c #B89485",
",. c #AA9B95",
"<. c #ACA19E",
"1. c #8C89A4",
"2. c #978FA7",
"3. c #9890A9",
"4. c #A69EBA",
"5. c #ACA4A3",
"6. c #B3AAA7",
"7. c #B3ABAB",
"8. c #BAB2AF",
"9. c #BDB4B4",
"0. c #CA9C88",
"q. c #D99B82",
"w. c #E49D82",
"e. c #E89F83",
"r. c #C6A18F",
"t. c #D7A28E",
"y. c #E6A187",
"u. c #ECA285",
"i. c #EAA388",
"p. c #F1A68A",
"a. c #F7A688",
"s. c #F3A88B",
"d. c #FAAC8E",
"f. c #FCAE90",
"g. c #FFB293",
"h. c #FFBA9B",
"j. c #C8ADA3",
"k. c #C6BBB9",
"l. c #CBC2BE",
"z. c #D7C3BE",
"x. c #FFC0A0",
"c. c #B2A8C6",
"v. c #B8B2D4",
"b. c #CDC3C2",
"n. c #C6C8C9",
"m. c #D1C6C4",
"M. c #D7C9C4",
"N. c #D5CCC9",
"B. c #D9CFCA",
"V. c #DCD2CD",
"C. c #DFD5D0",
"Z. c #E1D7D2",
"A. c #E4DAD5",
"S. c #E6DDD9",
"D. c #E9DFDA",
"F. c #EBE1DC",
"G. c #D3C7EB",
"H. c #D3C9EB",
"J. c #DDD3F9",
"K. c #EEE5E1",
"L. c #F0E6E3",
"P. c #F3E9E5",
"I. c #F8EDE7",
"U. c #F6ECEB",
"Y. c #F8EEED",
"T. c #FAF0EF",
"R. c #FEF4F4",
"E. c #FFFDFD",
/* pixels */
"E.R.R.R.R.R.R.R.R.R.R.R.R.R.R.R.R.R.R.R.R.E.U.k.,.U c M ,.I.F.F.F.F.F.F.F.F.F.F.F.F.F.F.F.F.F.F.F.P.",
"R.R.R.R.R.R.R.R.R.R.R.R.R.R.R.R.R.R.R.R.E.b.x % $ $ # $ % E S.K.F.F.F.F.F.F.F.F.F.F.F.F.F.F.F.F.F.F.",
"R.R.R.R.R.R.R.R.R.R.R.R.R.R.R.R.T.R.R.E.M.q $ 0 0 0 w w % # c D.F.F.F.F.A.F.F.F.F.F.A.F.F.F.F.F.F.F.",
"R.R.R.F.F.F.F.F.R.R.Y.F.F.F.D.F.D.D.D.U.Y w ] ' ]  .e.s.( r $ :.P.F.C.V.V.V.B.V.B.V.V.B.V.B.B.F.F.F.",
"R.R.R.F.F.F.D.F.R.R.Y.D.D.F.F.D.D.F.D.P.U P x.f.g.h.g.d.g.v + R I.F.V.B.V.V.V.V.V.B.V.V.V.V.V.F.F.F.",
"R.R.R.F.D.F.F.K.R.R.Y.D.F.F.F.F.F.F.D.U.Z I u.y G I ' a.d.v + W P.F.C.V.V.V.V.V.V.V.V.V.V.V.B.F.F.F.",
"R.R.R.D.F.F.F.F.R.R.Y.D.F.F.D.F.F.D.D.L.M ! p.-.^ b J f.g./ # ^ I.A.C.V.V.V.V.V.V.V.B.B.V.V.V.F.F.F.",
"R.R.R.F.F.F.F.F.R.R.Y.K.F.K.K.F.K.K.F.P.Y } f.:.^ $.| ` y.w.9 :.I.F.Z.V.V.V.C.V.C.C.C.C.C.V.V.F.F.F.",
"R.R.R.F.F.F.D.K.R.R.R.T.R.R.R.R.R.R.R.T.J o.d.! o.{ a.` y.X.r L Z.F.F.F.F.F.F.A.F.A.F.F.F.F.A.F.F.F.",
"R.R.R.F.F.F.F.K.R.R.R.R.R.R.R.R.R.R.R.E.R X.s.{ a.u.d.d.d.f.X./ V.F.F.F.F.F.F.F.F.F.F.F.F.F.F.F.F.F.",
"R.R.R.D.D.F.D.K.R.R.R.U.Y.Y.Y.Y.R.R.T.R.k.w.d._ [ 0. .p.a.i._ j.F.F.A.A.Z.A.A.F.F.F.A.A.A.A.A.F.F.F.",
"R.R.R.F.F.F.D.F.R.R.U.D.F.D.D.L.R.R.U.F.z.| O.,.n.n.>.a.y.i.7.S.F.F.Z.V.V.V.V.A.F.A.V.V.V.V.V.F.F.F.",
"R.R.R.D.D.F.D.K.R.R.Y.D.F.F.D.L.R.R.Y.F.F.>.O.t.5.<.w.i.u.0.N.A.F.F.V.V.V.V.V.A.F.F.V.V.V.V.V.A.F.F.",
"R.R.R.F.F.F.D.K.R.R.Y.F.F.F.D.K.R.R.U.D.K.N.L d.u.u.g.~ K =.F.A.F.F.V.V.V.V.V.A.F.F.V.V.V.V.V.F.F.F.",
"R.R.R.F.D.F.D.K.R.R.U.D.D.F.D.K.R.R.U.F.P.=.1.T X.u.K F 4.s %.A.P.F.V.V.V.V.V.A.F.F.V.V.V.V.V.F.F.F.",
"R.R.R.L.L.L.K.P.R.R.Y.K.L.L.K.U.R.R.R.k.z @ *.v.8 , 1.J.D O > j 8.L.Z.C.Z.C.C.A.F.F.V.V.V.V.V.F.F.F.",
"R.R.R.R.R.R.R.R.R.R.R.R.R.R.R.R.R.E.9.5 * 1 S 2.i i +.4.i 1 3 1 , 8.L.F.F.F.F.F.F.F.V.V.V.V.V.A.F.F.",
"R.R.R.R.E.R.R.R.R.R.R.R.E.R.R.R.R.Y.h 2 4 * S G.D h H.3.3 > > 8 > V L.F.F.F.F.F.F.F.V.V.V.V.V.F.F.S.",
"R.R.R.U.U.U.U.U.Y.Y.U.U.U.U.U.U.E.C.8 5 6 - 5 G.@.h J.S O > 6 3 5 8 B.S.Z.A.A.A.F.F.V.V.V.V.V.F.F.F.",
"R.R.T.F.F.F.S.F.S.F.D.D.D.D.S.K.E.b.3 5 4 > > c.S i 4.8 : 3 3 3 4 4 8.C.V.V.V.A.F.F.V.V.V.V.V.F.F.F.",
"R.R.R.K.F.F.F.F.F.F.F.F.F.F.F.K.E.9.3 3 5 > : +.B p N 1 3 1 : 3 3 4 7.A.V.V.V.A.F.F.V.V.V.V.V.A.F.F.",
"R.R.R.F.F.F.F.F.F.F.F.F.F.F.F.K.E.7.> 2 3 3 * g f i > 3 - 3 - 3 8 3 5.A.B.V.V.A.F.A.V.V.V.V.V.F.F.F.",
"R.R.R.S.F.F.S.F.F.F.F.F.F.S.S.F.E.5.1 3 - 6 > : i i 1 : 3 6 - 3 4 3 <.A.B.B.V.A.F.F.V.V.V.V.V.F.F.D.",
"R.R.R.L.L.L.P.L.L.L.P.L.L.P.P.P.E.5.1 2 = 6 3 * e 4 - 3 5 6 - 3 3 3 <.F.C.C.C.S.F.F.Z.Z.Z.Z.C.F.F.F.",
"R.R.R.R.R.R.R.E.R.R.R.R.R.E.R.R.E.5.: 3 : 6 6 : 1 @ 3 4 4 4 - 3 8 3 5.P.F.F.F.F.F.F.F.F.F.F.F.F.F.F.",
"R.R.R.R.R.R.R.R.R.R.R.R.R.R.R.R.E.7.1 3 - 8 3 3 - - 8 4 4 6 - 3 8 3 7.P.D.F.F.F.F.F.F.F.F.F.F.F.F.F.",
"R.E.R.L.L.L.P.U.R.R.T.L.P.P.P.K.R.7.3 1 * > > 6 1 1 3 - * : * 5 3 3 6.F.C.Z.Z.C.Z.A.A.C.Z.Z.C.F.F.D.",
"R.R.R.D.F.D.F.F.R.R.Y.D.D.D.F.S.L.6.3 5 - 3 * 3 3 3 : 1 3 * * 5 8 4 5.Z.V.B.V.V.B.B.B.V.B.V.V.D.F.F.",
"R.R.R.F.F.F.F.K.R.R.Y.D.F.F.F.D.L.l.4 > - 1 : 3 3 3 3 : 1 > * 1 3 , <.A.V.V.V.V.V.V.V.V.V.V.V.D.F.D.",
"R.R.R.F.F.F.D.K.R.R.Y.D.F.F.F.D.F.N.l g 3 1 5 3 - > 3 3 6 3 * p u a 8.Z.V.V.V.V.V.V.V.V.V.V.V.F.F.F.",
"R.R.R.F.F.F.F.F.R.R.Y.D.D.D.D.D.D.C.Q _ x & 1 : * O * @ * O 3 ) ^ J l.V.B.V.B.V.V.B.V.V.B.V.V.D.F.F.",
"R.R.T.F.D.F.F.K.R.R.T.U.U.Y.U.U.T.D.q.o.H ; 4 3 * 8 3 1 : - c p.g.} l.D.A.A.A.A.A.A.A.A.A.A.A.D.F.F.",
"R.R.R.F.F.F.F.F.R.R.R.R.R.R.R.R.R.Y.>...t 3 u * f D.V 1 e 1 m q. .~ C.K.F.F.F.F.F.F.F.F.F.F.F.F.F.F.",
"R.R.R.F.D.F.D.K.R.R.R.R.R.R.R.R.R.E.z._ d 1 8 * n U.A * 8 1 D r.' T Z.D.D.F.D.F.F.F.D.F.F.F.F.D.F.F.",
"R.R.R.F.F.F.F.K.R.R.Y.L.K.K.L.U.R.R.L.S.#.: 8 1 n L.A 1 e * R z.;.M.S.C.C.C.C.S.D.D.Z.C.C.C.C.D.F.F.",
"R.R.R.F.F.F.D.F.R.R.U.S.F.F.F.K.R.R.U.U.#.> 8 1 B L.C 1 i * A K.L.K.C.B.V.V.B.A.F.D.C.B.V.V.V.D.F.F.",
"R.R.R.F.F.F.F.K.R.R.Y.F.F.F.F.K.R.R.U.P.%.: 8 1 n F.A * i * A F.D.D.C.V.V.V.B.A.F.D.C.V.V.V.V.D.F.F.",
"R.R.R.F.F.F.S.K.R.R.Y.F.F.F.F.L.R.R.U.P.&.1 8 2 j F.A : i 1 V F.D.D.Z.V.V.V.V.A.F.S.C.V.V.V.V.D.F.S.",
"R.R.R.F.S.F.F.K.R.R.U.S.F.F.S.K.R.R.U.P.&.1 8 1 j L.A 1 6 : B F.F.F.Z.B.V.V.V.A.F.D.C.B.V.V.V.D.F.F.",
"R.R.R.Y.U.U.U.Y.R.R.R.U.U.Y.U.T.R.R.U.P.=.1 8 1 j F.A * i * S L.D.D.A.A.A.A.A.D.F.D.C.V.V.V.V.D.F.F.",
"R.R.R.R.R.R.R.R.R.R.R.R.R.R.R.R.R.R.P.P.=.1 8 1 c F.A ; 8 - A P.D.F.F.F.F.F.F.F.D.D.C.V.V.B.V.D.F.F.",
"R.R.R.T.R.R.R.R.R.R.R.R.R.R.R.R.R.E.U.P.=.1 8 1 j P.+.; 8 - C L.S.F.D.D.D.D.D.F.F.D.C.B.V.V.V.D.F.F.",
"R.R.R.L.K.K.L.L.K.K.K.K.K.L.F.P.R.R.U.P.=.1 6 1 j L.#.- 8 1 V A.V.V.V.C.C.C.V.S.F.D.C.V.V.V.V.D.F.F.",
"R.R.R.D.S.D.D.D.S.D.D.D.D.D.S.L.R.R.P.P.=.> 8 1 j L.#.: 8 : V Z.V.V.B.V.V.V.B.A.F.D.C.V.V.V.V.D.F.F.",
"R.R.R.K.D.D.K.D.K.D.K.F.D.D.D.L.R.R.U.P.=.> 7 > k P.^ ; 8 : C A.B.V.V.V.V.V.V.A.F.D.V.V.V.V.V.D.F.S.",
"R.R.R.D.D.D.D.D.D.D.D.D.D.K.D.L.R.T.P.U.=.2 8 < k I.+.- 8 : C Z.V.V.B.V.V.V.V.A.F.F.V.V.V.V.V.D.F.F.",
"R.R.R.D.D.K.D.D.D.D.D.D.D.D.D.L.E.E.S.M < O - * - M - * > X M F.V.V.V.V.V.V.V.A.F.D.C.V.V.V.V.F.F.F.",
"R.R.R.R.T.R.R.R.R.R.R.R.R.R.R.R.U.=.f . X o X X X . X X .   f F.D.D.D.D.D.D.D.D.F.F.D.D.D.F.S.F.F.F.",
"R.R.R.R.R.R.R.R.R.R.R.R.R.R.R.E.&.  . X X - * . X X X 7 s o C F.D.D.F.F.F.F.F.F.F.D.F.F.F.F.F.F.F.D.",
"E.R.R.R.R.R.R.R.R.R.R.R.R.R.R.E.N.7.9.7.n.K.m.7.7.5.9.C.F.V.F.F.D.F.F.F.D.F.F.F.F.F.F.F.F.D.F.F.F.I."
};
