/* XPM */
static char *_09e3cf733e34f14cb2555e89d3143a4p44monxrL3KQcD6P[] = {
/* columns rows colors chars-per-pixel */
"50 50 166 2 ",
"   c #060606",
".  c #0B0B0C",
"X  c #131212",
"o  c #181617",
"O  c #1B151C",
"+  c #1D1A1D",
"@  c #341B0E",
"#  c #271A18",
"$  c #341E14",
"%  c #3A2217",
"&  c #3C251B",
"*  c #221D22",
"=  c #262225",
"-  c #292427",
";  c #2B252C",
":  c #2F282E",
">  c #30272F",
",  c #322D2F",
"<  c #2F2830",
"1  c #332B35",
"2  c #342C34",
"3  c #382F38",
"4  c #343131",
"5  c #393137",
"6  c #393139",
"7  c #3C3939",
"8  c #41271B",
"9  c #4A2F23",
"0  c #4A3429",
"q  c #5C3C2D",
"w  c #41393D",
"e  c #553C31",
"r  c #59453C",
"t  c #654334",
"y  c #6D4A3B",
"u  c #714836",
"i  c #734E3E",
"p  c #3E3741",
"a  c #3F3A44",
"s  c #443C44",
"d  c #494247",
"f  c #4B4349",
"g  c #4D4A48",
"h  c #53464B",
"j  c #524A4E",
"k  c #4C4853",
"l  c #544C51",
"z  c #524C59",
"x  c #5E5358",
"c  c #644B40",
"v  c #69544B",
"b  c #705143",
"n  c #795D5A",
"m  c #5F5968",
"M  c #625D6C",
"N  c #6B6666",
"B  c #716967",
"V  c #736D6E",
"C  c #6C6675",
"Z  c #766E72",
"A  c #726B7C",
"S  c #7A7275",
"D  c #7E7678",
"F  c #805545",
"G  c #825A4A",
"H  c #925F4A",
"J  c #8E614F",
"K  c #916555",
"L  c #A36E58",
"P  c #A6735F",
"I  c #83736C",
"U  c #877C79",
"Y  c #AD7761",
"T  c #A3796B",
"R  c #B67B65",
"E  c #90837E",
"W  c #BC836C",
"Q  c #AB8474",
"!  c #B28473",
"~  c #B98874",
"^  c #B68C7C",
"/  c #C1856E",
"(  c #CA886C",
")  c #CD8C73",
"_  c #C18D78",
"`  c #D28E74",
"'  c #CC927A",
"]  c #D19177",
"[  c #D2937B",
"{  c #E2997D",
"}  c #877F81",
"|  c #82798C",
" . c #8D8786",
".. c #9F8E87",
"X. c #958E8D",
"o. c #98908E",
"O. c #928A9B",
"+. c #989594",
"@. c #9D9594",
"#. c #B69486",
"$. c #BA9587",
"%. c #A59A95",
"&. c #AD9C95",
"*. c #B89E97",
"=. c #B8A399",
"-. c #9B93AC",
";. c #AFA5A0",
":. c #B9A7A0",
">. c #B3A9A6",
",. c #B3AEAD",
"<. c #BCB3AF",
"1. c #ACA2BE",
"2. c #BCB4B3",
"3. c #E49E83",
"4. c #E89F82",
"5. c #D4A18E",
"6. c #C6A395",
"7. c #C9A597",
"8. c #D2A897",
"9. c #EEA386",
"0. c #E6A38A",
"q. c #F5A586",
"w. c #F2A68A",
"e. c #F6A98B",
"r. c #FDAD8D",
"t. c #FDAE91",
"y. c #FFB294",
"u. c #FFB799",
"i. c #FFBA9A",
"p. c #CEB4AB",
"a. c #C1B9B4",
"s. c #C6BDBA",
"d. c #C9BFBB",
"f. c #D5BBB3",
"g. c #CBC1BC",
"h. c #D4C3BF",
"j. c #ACA4C0",
"k. c #B1A9C6",
"l. c #BBB1CF",
"z. c #C1B7D7",
"x. c #BAC4C7",
"c. c #CEC5C4",
"v. c #CEC9C6",
"b. c #D0C7C4",
"n. c #D4C9C5",
"m. c #D6CCCA",
"M. c #D9CECA",
"N. c #DCD2CD",
"B. c #D8CFD0",
"V. c #DED4D1",
"C. c #E1D7D2",
"Z. c #E4DAD5",
"A. c #E5DCD9",
"S. c #E9DFDA",
"D. c #E7E1DD",
"F. c #EBE1DC",
"G. c #D0C6E8",
"H. c #EEE5E1",
"J. c #F0E6E3",
"K. c #F3E9E5",
"L. c #F6ECEB",
"P. c #F8EEED",
"I. c #FAF1EE",
"U. c #FEF4F4",
"Y. c #FFF7F8",
"T. c #FFFBFB",
/* pixels */
"Y.U.U.U.U.U.U.U.U.U.U.U.U.U.U.U.U.U.U.U.Y.S.c.b.S.S.K.J.S.F.S.F.F.F.F.F.F.S.F.F.F.F.S.F.F.F.F.F.F.K.",
"U.U.U.U.U.Y.U.U.U.U.U.U.U.U.U.U.U.U.Y.T.<.q & , e v I d.K.S.F.F.S.F.F.F.F.F.F.F.F.F.F.F.F.F.F.F.S.S.",
"U.U.U.U.U.U.U.U.U.U.U.U.U.U.U.U.I.U.P.U , @ $ $ & $ @ 0 >.J.S.S.F.S.S.Z.S.F.S.S.S.S.S.S.F.S.S.F.F.F.",
"U.U.U.F.F.F.F.H.U.U.P.F.F.H.S.F.S.K. .@ 9 G Y J b t i 9 0 f.V.Z.F.S.C.N.N.N.N.N.N.N.N.N.N.N.N.S.F.F.",
"U.U.U.F.F.F.A.F.U.U.P.S.F.F.S.F.F.S.r & P u.y.y.t.y.y.[ q =.V.Z.F.F.C.N.N.N.N.N.N.N.N.N.N.N.N.S.F.F.",
"U.U.U.F.F.F.F.F.U.U.P.S.F.F.F.F.F.C.r % / t.w.e.9.R [ y.i ;.Z.Z.F.S.C.N.N.N.N.N.N.N.N.N.N.N.N.S.F.F.",
"U.U.U.F.F.F.F.F.U.U.P.S.S.F.F.S.F.C.c 8 ) u.] y y b J y.y @.Z.Z.F.F.C.N.N.N.N.N.N.N.N.N.N.N.N.S.F.F.",
"U.U.U.F.F.F.F.H.U.U.P.H.H.F.F.F.J.J.v u t.w.4.I  .+.7.t.G %.Z.Z.F.F.C.N.N.N.N.C.C.N.N.C.N.N.N.F.F.F.",
"U.U.U.F.F.F.F.F.U.U.U.U.U.U.U.U.U.S.v t t.Q [ ! Q Q _ u.J &.Z.Z.F.F.S.S.S.S.S.S.S.S.S.S.S.S.S.S.S.F.",
"U.U.U.F.F.F.S.F.U.U.U.U.U.U.U.U.T.*.H W e.0.w.9.e.{ / i.F ..Z.Z.F.S.F.F.F.F.F.F.F.F.F.F.F.F.F.S.F.F.",
"U.U.U.F.S.F.F.H.U.U.U.L.P.P.L.P.T.b.` w.r.y.e.{ ` ` W u.K ,.Z.Z.F.F.Z.Z.Z.Z.Z.S.F.S.Z.Z.Z.S.Z.S.F.F.",
"U.U.U.F.F.F.F.H.U.U.L.S.S.F.S.H.U.U.<.^ 9.3.0.#.7...! r.^ v.N.Z.F.F.N.N.N.N.N.Z.F.S.N.N.N.N.N.S.F.F.",
"U.U.U.F.S.F.F.F.U.U.P.F.F.F.S.J.Y.U.T.p.q.3.q.&.x.x.[ [ =.N.N.Z.F.S.C.N.N.N.N.Z.F.S.C.N.N.N.N.S.F.F.",
"U.U.U.F.F.F.F.H.U.U.L.F.F.F.F.J.U.U.L.N._ ` w.0.#.5.q.~ g.V.N.Z.F.F.C.N.N.N.N.Z.F.S.N.N.N.N.N.S.F.S.",
"U.U.U.F.S.F.S.F.U.U.L.F.S.F.S.H.U.Y.T.2.A B L r.u.r.T O.Z.V.n.Z.F.F.C.N.N.N.N.Z.S.S.C.N.N.N.N.S.F.F.",
"U.U.U.J.H.J.H.J.U.U.I.H.J.J.H.J.T.K.+.: z l.O.n J n k.Z B b.F.Z.F.S.C.N.C.C.N.S.F.S.N.N.N.N.N.S.F.F.",
"U.U.U.U.U.U.U.U.U.U.U.U.U.Y.U.T.b.d ; < * | G.k - M l.s * s >.H.S.S.S.F.F.F.F.F.S.S.C.N.N.N.N.S.F.F.",
"U.U.U.U.Y.Y.Y.U.Y.U.U.U.U.U.U.I.l ; 3 ; < m j.| 6 A -.s ; ; 3 2.K.D.F.F.F.F.F.F.F.S.N.N.N.N.N.S.F.S.",
"U.U.U.L.L.L.L.L.L.L.L.L.L.L.I.a.< 6 2 ; - p G.l.f G.1.; ; 6 - V D.Z.Z.Z.Z.Z.Z.S.S.S.C.N.N.N.N.S.F.F.",
"U.Y.U.S.S.S.S.F.S.F.S.F.F.A.K.X.< 3 2 3 ; # -.-.6 z.O.* 3 3 ; M N.M.N.N.N.N.N.Z.S.S.N.N.N.N.N.S.F.F.",
"U.U.U.F.F.F.F.F.F.F.F.F.F.F.K. .; 6 1 : : : z A > -.A * > 5 1 j M.N.N.N.N.N.N.Z.F.S.C.N.N.N.N.S.F.F.",
"U.U.U.F.F.F.F.F.F.F.F.F.F.F.K.D ; 6 < < ; 1 2 s w C s * 2 2 1 j M.N.N.N.N.N.N.Z.F.S.N.N.N.N.N.S.F.S.",
"U.U.U.F.F.S.F.F.F.F.F.S.F.A.J.S ; 6 < < 3 ; : 2 h w : : 3 ; > f h.C.N.N.N.N.h.D.F.S.C.N.N.M.N.S.F.S.",
"U.U.U.J.J.K.J.J.J.J.J.J.J.H.P.S ; 3 < 1 3 2 ; ; f 2 - 3 2 * 2 d N.Z.N.C.C.C.C.D.F.S.C.C.C.C.C.S.F.F.",
"U.U.U.Y.U.U.U.U.U.Y.U.Y.U.U.Y.Z ; 6 < < 3 3 1 = 5 - ; 3 2 ; 2 s Z.F.F.F.F.F.F.F.F.F.F.F.F.F.F.F.F.F.",
"Y.U.U.U.U.Y.U.Y.U.U.U.U.U.U.T.S ; 5 1 : 6 1 6 ; - > 2 3 2 > 2 f Z.F.F.F.F.F.F.F.F.F.F.F.F.F.F.F.F.F.",
"U.U.U.J.J.J.J.L.U.U.P.J.J.J.I.D * 6 < 1 2 1 1 3 * 2 2 2 > ; 2 h Z.F.Z.C.Z.C.C.Z.Z.C.Z.Z.C.C.C.F.F.F.",
"U.U.U.F.F.F.F.F.U.U.P.S.F.S.J.D ; 6 < * - - = 1 ; 2 > - ; ; 2 l S.F.C.N.N.N.h.C.N.N.N.h.N.N.N.F.F.S.",
"U.U.U.F.F.F.F.H.U.U.L.S.F.S.J.S * 3 > * ; 3 ; 2 > 2 ; 1 2 : : x S.F.C.C.N.N.N.N.N.N.N.N.C.N.N.F.F.S.",
"U.U.U.F.F.F.F.F.U.U.P.S.F.S.K.D 1 p 1 * 1 < < 6 : 2 3 ; ; 2 1 B F.S.C.h.N.N.N.N.N.N.N.N.N.N.N.F.F.F.",
"U.U.U.F.F.F.F.F.U.U.P.S.S.S.K.o.s M k * 1 < < ; # = 1 2 : h x } J.S.N.N.N.N.N.N.N.h.N.N.h.N.N.S.F.F.",
"U.U.U.F.F.F.F.H.U.U.U.L.L.K.U.:.) 0.! * + * = + O ; < ; * W ( 8.D.D.S.C.S.C.C.S.S.Z.Z.Z.Z.Z.Z.S.F.F.",
"U.U.U.F.F.F.F.F.U.U.U.U.Y.U.T.f.4.3.' s 3 3 1 Z } + 3 6 , W ( 6.S.S.S.F.F.F.F.F.F.F.F.F.F.F.F.F.F.F.",
"U.U.U.F.F.F.S.H.U.U.U.U.U.U.T.p.) [ $.s 2 3 1 c.H.= 1 6 ; P ` a.H.S.F.F.F.F.F.F.F.F.F.F.F.F.F.S.S.F.",
"U.U.U.F.S.F.S.H.U.U.P.H.J.H.L.M.#.~ n.d 2 3 > 2.V.2 3 6 < E 6.Z.F.F.C.C.V.V.V.Z.S.S.C.V.C.C.V.S.F.F.",
"U.U.U.F.F.F.F.F.U.U.P.S.S.S.S.K.L.A.S.p 2 3 > 2.A.2 3 3 4 <.V.Z.F.S.C.M.N.N.N.Z.F.S.N.N.M.M.M.S.F.F.",
"U.U.U.S.S.F.S.H.U.Y.P.S.F.F.S.J.U.T.A.p 3 3 < 2.A.1 < 6 1 2.C.Z.F.F.V.N.N.N.N.Z.F.F.N.N.N.N.N.F.F.F.",
"U.U.U.F.F.F.F.F.U.U.P.S.F.F.S.J.U.Y.V.p 1 3 ; 2.V.1 3 3 5 2.N.C.F.S.V.N.N.N.N.Z.F.F.C.N.N.N.N.F.F.S.",
"U.U.U.F.S.F.S.H.U.U.L.S.S.S.S.H.U.Y.A.7 3 3 < 2.B.1 3 3 4 2.V.Z.F.S.C.M.N.N.M.Z.F.F.N.N.N.N.N.F.F.F.",
"U.Y.U.L.L.P.L.P.U.U.U.P.P.L.P.P.U.T.Z.6 1 3 < 2.V.1 3 1 3 v.F.D.F.F.A.Z.Z.S.Z.S.F.S.N.N.N.N.M.S.F.F.",
"U.U.U.U.U.U.U.U.U.U.U.U.U.U.U.U.U.Y.V.p 1 3 < 2.V.> 3 3 7 M.F.D.F.S.F.F.F.F.F.S.F.Z.C.N.N.N.N.F.F.F.",
"U.U.U.U.U.U.U.U.U.U.U.U.U.U.U.U.U.T.V.p 1 3 < s.V.1 3 2 7 M.F.D.S.S.S.S.S.S.S.S.F.F.N.N.N.N.N.S.F.D.",
"U.U.U.F.H.H.J.F.S.J.H.J.H.H.F.K.U.T.V.7 1 3 2 c.B.2 2 3 2 g.V.V.N.C.N.C.C.N.N.S.F.S.N.N.N.N.N.S.F.F.",
"U.Y.U.F.S.S.S.F.S.S.S.S.S.S.S.J.U.T.A.6 1 3 1 v.B.2 3 3 4 g.V.N.N.N.N.N.N.N.N.Z.F.F.N.N.N.M.N.S.F.F.",
"U.U.U.F.S.F.F.F.F.F.F.F.S.F.F.J.U.Y.V.7 3 3 2 v.m.1 3 3 4 g.V.N.N.N.N.N.N.N.N.Z.F.S.N.N.N.N.N.F.F.F.",
"U.U.U.F.F.S.F.F.F.F.S.S.S.F.S.J.U.T.V.a 2 4 2 B.V.3 3 3 7 g.V.N.N.N.N.N.N.N.M.Z.F.S.N.N.N.N.N.S.F.F.",
"U.U.U.F.F.F.S.S.F.F.S.S.S.S.S.J.U.T.V.4 < 3 = +.,.; < 3 - o.g.V.N.N.N.N.N.N.N.Z.F.S.N.N.N.N.N.F.F.F.",
"U.U.U.U.P.U.U.U.U.U.U.U.U.U.U.U.Y.T.A.- o + o o = o o + X X g v.F.S.S.S.S.S.F.F.F.F.S.S.S.S.S.F.F.F.",
"U.U.U.Y.U.U.Y.U.Y.U.U.Y.U.U.Y.U.U.T.V.X   X . X X X X . . o X o n D.F.F.F.F.F.F.F.F.F.F.F.F.F.F.F.S.",
"Y.U.U.U.U.U.U.U.U.U.U.U.U.U.U.U.U.Y.L.o.X.2.V d 4 , , N N 7 , : 4 M.F.F.F.F.F.F.F.F.F.F.D.F.F.F.F.K."
};
