/* XPM */
static char *_a2a6abd24054cc086d2966e0132d28ctspIhDRaDjLvGUCd[] = {
/* columns rows colors chars-per-pixel */
"50 50 48 1 ",
"  c #D9CFCA",
". c #DAD0CB",
"X c #DBD1CC",
"o c #DCD2CD",
"O c #DED4CF",
"+ c #DFD5D0",
"@ c #E1D7D2",
"# c #E2D8D3",
"$ c #E3D9D4",
"% c #E4DAD4",
"& c #E5DBD6",
"* c #E6DCD7",
"= c #E7DDD7",
"- c #E7DDD8",
"; c #E8DED8",
": c #E9DED9",
"> c #E9DFDA",
", c #EADFDA",
"< c #E9E0DA",
"1 c #EAE1DB",
"2 c #EAE1DC",
"3 c #ECE2DD",
"4 c #ECE2DE",
"5 c #EEE4DF",
"6 c #EDE3E0",
"7 c #EEE4E0",
"8 c #EFE5E2",
"9 c #F0E6E2",
"0 c #F0E6E3",
"q c #F0E7E3",
"w c #F1E7E4",
"e c #F2E8E5",
"r c #F2E8E6",
"t c #F4EAE7",
"y c #F4EAE8",
"u c #F4EBE8",
"i c #F6ECEB",
"p c #F4EEEB",
"a c #F7EDEC",
"s c #F9EFEE",
"d c #F9F0EF",
"f c #FAF0EF",
"g c #FCF2F2",
"h c #FDF3F3",
"j c #FFF4F4",
"k c #FEF5F5",
"l c #FFF5F6",
"z c #FEF9F9",
/* pixels */
"zjjjjjjjjjjjjjhhhhhhjjjjg4<4,,<<4<,<4,4,<,,<<<4,<i",
"jjjjjjjjjjjjjjzjjzzjjjjzg<,4<444<,4<<4<444444<<4,4",
"jjjggghhjjhghhgggggggggjg4<<,<,,,4<<,<,,,,-<4,,4<4",
"jjg42626hhs42622<44<<4<eg4#XXXX#<4+XXoXoXooXoXX-4<",
"jjg<2<24jjp<4-4-,4,4-4,eh4@ XoX$4-+XXXXXXXXXXXO<4<",
"jjg42224jjs<<4<424<444,eh4@XooX&<4+X+XXXoXoXooX-<<",
"jjg4<1<4gjd<<44<-<4,,<<eh4@ oXX$4-+XXXXXXXXXXXX,4<",
"jjg4<426gjd444666666454eh4$XoXX$<4@X++o++OOO+o+,4,",
"jzg444,4hjhhjhhjhhhhjjhhg4@..o.&4<,,,,,,=,<-,,,<<<",
"jjg<<<,4jjjjjjjjjhhhjjjhg4@.oo.%<<,44<<,4,444<44,4",
"hzg2,444hjhppsihjhhipsihg<#.oo.&4,-&$=$4<,-=$$--<4",
"hjg2<4<4hhp,<4-8jjp,4<,eh4#.oo.#4<+ XXX$4,oXXX.=4<",
"hjg<<4<4hjs,4<,7zjp<4<<ej4#.oo.&4-#XooX$<<+X+XX,4,",
"hzg44444jjs,44,ejjp<<4<0h<@.oo.&4-OXoXX-2-+XXXX44,",
"hzg<<,,4jzp,,,,7hhp,5<<eh4# .. #<4+ XX $44oXXXX&<,",
"hjgq007ehhs5057yhzp,<4-ej<&O#@O=4,$++$+&<-+XXX+,4<",
"zhhzzhhhhjhhjjjjhji<4<,eh4,<4<4<,<,<4<<,,,@o oo44,",
"hhhhhhzzzljzzhzjjzi,<4,0h<<<444<4,44<4<,<<O ooo,<<",
"hhhiiiypiipiiiedhzi<4,,ih4=&&&=%******&,<*Ooooo,4<",
"hzh,,4<-,,-,,,47hji<<<,wh4@ o        o &4,@ oo ,4,",
"hhh,<222,,444<28jzi,,4,wh4@ooooooooooo &<,o o O,4<",
"hzg44424,6-4,4-ehhi,44,wh4@ oooooooooo &4,@oooo*<,",
"hhg,4,,,,,<,,,,wzzi,,,-wf4@ o        o *<,o o o,44",
"jhhy7eeeeeewwwwihhswwwwph4&@@@@@@##@@#@,,,&@@@@,<<",
"zhhhzjzhzjlzhhhjjjjjjjjjh4<44<4,4<4<4<,,<,<4<4,4,4",
"jhhhhjjjhjjhhzzhzjzjjzjjh<,<,4<,4,,4<4<44<444<4,<<",
"hhhieweihjswywyweeeeeeeih4&@##%*<,&@%@@@#@#@@@#,5,",
"jzh,4,,4hhs,>>,,<<<=<4=eh4@ o  *4<O o  o..... o,<,",
"jjg4<<44hjg<,44<4<444<<eh4#ooo *4<+oooooooooooo,4,",
"jjg4,444hhp,4<4,<4<4<4,9h4@ oo *<,@ ooooooooooo,<4",
"jjg4-4<4hhs,,,,,,4,,,==eh<@ oo &4<O o     ..  o,4,",
"jjh<<444hhsipiiipipeaaash4@ oo &4<&&&&&&&&&&%&*,<,",
"jjj<44,4gjjzjzgzzgjzhjzhh6@ oo &4<44<4<4<44<444,,4",
"jjg4,<,4jjjjgjgjggjhhhhgh,@ oo &,,,,,4<4,,,,,<<,,4",
"hjg<,4,4gjg77w8pjzi5qqqih4@ oo &<,#O+++&,,@@++@,<,",
"hjg6-446jjp-4,,7jjd,4<47h4#XoX &4,#.XX &<<ooX .,44",
"jjg2<2,6hjs,,<,wzji4<<-eh4@ Xo &4,@.ooX&4<+XXoo<<<",
"hzh6<447hhs,,4,wjjp<4<4eg4@Xoo &<<OoooX&<<oXoXX,4,",
"hjh2<,,7hji,<<,6jjp<4<,eh4@ oXX$44O .. $4,+XXXX4<<",
"jjhppdpijjhisiishha<<4,eh4&&=$$4<<&&=&&,,,+XoX.,44",
"jjjjjjhhjjjjjjjjhji,44,eh<<<<44<<,<4<4<,<,+XXXX4<<",
"jjjjjjhhghjgjgjjhzi<,4,eh4,44-,<<,4-,,<44-XXXXX<4<",
"jjh777507467762rhhp,4,,wh4$XOX+++XX+++o-<,OXXXX4<<",
"jjg<=4,<44<<42-qzhp,<4,wg4@XXXXXXXXXXXX$4,+XX..,4<",
"hjj2<<44444<222qjjp,4<<eh4@XXXOXXoooooX-<,+XoXo44<",
"zjh2,,<<,<<<22<7jzp,<4,eh4@.XXXXXXXXXoX$44XXoX.<4<",
"jjg2<44<<4<444<ejjs<4<<eg4#X.XXXXXoo..X$<<OX..X4<4",
"jjhhgghggggggggghghgghgjg<,,,,4<4,,44-<,,4=<4,,,4<",
"hzhjjjjzjjjjzjjjhjjjjjjjh2222222<4<44<4<,,<444<4<,",
"zhhjjjzjhhjjhjzjjjzhjhljh222222<4-4-<,<444<<,,4<4e"
};
