/* XPM */
static char *b457394106d54136c01250f522ea62595qEvMQl9ggXF0Fjd[] = {
/* columns rows colors chars-per-pixel */
"50 50 178 2 ",
"   c #120606",
".  c #25110A",
"X  c #2E211F",
"o  c #39241B",
"O  c #2B2427",
"+  c #3A2924",
"@  c #382C29",
"#  c #352D35",
"$  c #362E39",
"%  c #392F3A",
"&  c #373234",
"*  c #3C333D",
"=  c #41261A",
"-  c #45281A",
";  c #4C2E1F",
":  c #422D24",
">  c #47342D",
",  c #533425",
"<  c #5A3727",
"1  c #5C3929",
"2  c #4B3A33",
"3  c #4D423D",
"4  c #5B4235",
"5  c #774D3A",
"6  c #3F3640",
"7  c #363849",
"8  c #393E53",
"9  c #403741",
"0  c #423A43",
"q  c #3D435A",
"w  c #464145",
"e  c #484047",
"r  c #4B434A",
"t  c #4E484E",
"y  c #504A51",
"u  c #5B565A",
"i  c #624D49",
"p  c #7C5948",
"a  c #665A56",
"s  c #795D50",
"d  c #595C69",
"f  c #645D62",
"g  c #666165",
"h  c #6B666B",
"j  c #716B6C",
"k  c #676C7C",
"l  c #737075",
"z  c #8E553B",
"x  c #875A45",
"c  c #955D43",
"v  c #9B6247",
"b  c #95634C",
"n  c #9D644B",
"m  c #896757",
"M  c #946954",
"N  c #936B59",
"B  c #A3694F",
"V  c #A8684A",
"C  c #B06D4D",
"Z  c #AA6D51",
"A  c #A6735B",
"S  c #B97556",
"D  c #8D7366",
"F  c #987665",
"G  c #837973",
"H  c #A47964",
"J  c #A57C69",
"K  c #C17C5C",
"L  c #8D817F",
"P  c #988378",
"I  c #A7806D",
"U  c #B1846E",
"Y  c #B78D7A",
"T  c #C68060",
"R  c #CB977E",
"E  c #7A7D85",
"W  c #7E8392",
"Q  c #8C8686",
"!  c #9A8C86",
"~  c #858993",
"^  c #918E93",
"/  c #9F9797",
"(  c #A5948D",
")  c #BA9C8D",
"_  c #AA9C97",
"`  c #BA9E90",
"'  c #ABA19D",
"]  c #B7A39B",
"[  c #8E95A0",
"{  c #9699A4",
"}  c #ADA5A3",
"|  c #A5A6AC",
" . c #B2A7A3",
".. c #BDABA4",
"X. c #B3ADAB",
"o. c #BDB1AD",
"O. c #A7ABB5",
"+. c #A9ADB6",
"@. c #ADB0BA",
"#. c #BDB4B0",
"$. c #C49883",
"%. c #CC9C83",
"&. c #D4A38B",
"*. c #DFA98E",
"=. c #C4A291",
"-. c #DDAB92",
";. c #E4AD93",
":. c #EAB297",
">. c #EEB499",
",. c #F2B69A",
"<. c #F5BA9E",
"1. c #F8B99C",
"2. c #C5ADA2",
"3. c #CDAEA0",
"4. c #C3B2AC",
"5. c #C8B5AD",
"6. c #D3B4A6",
"7. c #D9BAAC",
"8. c #C5B9B5",
"9. c #CDBDB6",
"0. c #C7BEBA",
"q. c #FABEA1",
"w. c #CBC2BD",
"e. c #D6C3BD",
"r. c #FFC2A5",
"t. c #FFC6A8",
"y. c #FFCAAC",
"u. c #B6B9C3",
"i. c #B5BDCB",
"p. c #B9BDC8",
"a. c #C1BEC2",
"s. c #BEC1CD",
"d. c #BEC3D1",
"f. c #C6C3C7",
"g. c #D3C9C4",
"h. c #D3CAC6",
"j. c #D6CECB",
"k. c #D9CFCA",
"l. c #DCD2CD",
"z. c #C5C7D2",
"x. c #C5C9D3",
"c. c #CCCCD5",
"v. c #C9CEDA",
"b. c #CDD1DE",
"n. c #DED5D0",
"m. c #E1D7D2",
"M. c #E4DAD5",
"N. c #E6DDD9",
"B. c #E9DFDA",
"V. c #E7E0DD",
"C. c #EBE1DC",
"Z. c #CFD4E1",
"A. c #D1D6E3",
"S. c #D7D9E5",
"D. c #D9DEED",
"F. c #DDE2F1",
"G. c #EEE4E1",
"H. c #EFE8E4",
"J. c #F0E6E3",
"K. c #F3E9E6",
"L. c #F6EDEB",
"P. c #F8EEED",
"I. c #FAF0EF",
"U. c #E1E6F5",
"Y. c #E4E9F7",
"T. c #E4EAF9",
"R. c #E9EEFE",
"E. c #EDF3FF",
"W. c #FCF2F1",
"Q. c #FCF2F2",
"!. c #FDF3F3",
"~. c #FEF4F4",
"^. c #FFF5F4",
"/. c #FFF6F7",
"(. c #FFF9F7",
"). c #FFF9F9",
"_. c #FFFBFB",
"`. c #FFFDFE",
/* pixels */
").^.^.^.^.^.^.^.^.^.^.^.^.^.^.^.~.^.^.^.`.`.J.9.2.5.j.J.B.B.G.B.C.C.C.B.C.B.C.C.C.B.C.C.B.C.C.C.B.L.",
"^.^.^.^.^.^.^.^.^.^.^.^.^.^.^.^.^.^.^.`.l.( N C K S A ] G.B.B.B.C.B.C.C.C.C.C.C.C.C.C.C.C.C.C.C.B.B.",
"^.^.!.!.!.!.!.!.~.~.!.!.!.!.!.~.W.!./.g.n z c Z Z S S c ` J.B.B.B.C.B.B.B.C.B.B.B.B.B.B.B.B.B.B.C.C.",
"^.^.!.C.C.C.C.G.!.~.L.C.C.C.B.C.B.C.M.H V Z Z T S K K S b 0.n.M.C.B.m.l.l.l.l.l.l.l.l.l.l.l.n.B.C.C.",
"~.^.!.C.B.B.B.C.!.~.P.C.C.C.C.C.B.J.k.c V B 5 c v v v Z c _ m.m.C.C.m.l.l.l.l.l.l.l.l.l.e.m.l.B.C.C.",
"~.^.!.C.C.C.C.G.~.^.P.C.C.C.C.C.B.G.N.M 5 b $.J p p N x V Y n.M.C.C.l.l.l.l.l.l.l.l.l.l.l.n.l.B.C.C.",
"~.^.!.B.C.C.C.C.~.~.P.C.C.C.C.C.B.C...K c J r.y.>.<.q.-.A Z ..C.C.C.n.l.l.l.l.l.l.l.l.l.l.l.l.B.C.C.",
"^.^.!.C.C.C.C.G.~.^.P.G.C.C.C.C.G.N.H c x ;.q.;.` ) ` :.A Z H g.C.B.m.l.n.l.l.n.m.l.l.m.n.l.n.B.C.B.",
"~.^.~.C.B.C.C.G.~.~.~.!.!.!.!.!.).j.M F o :.r.&.Q G Q %.H p F l.C.B.B.B.B.B.B.B.B.B.C.C.C.C.M.C.C.C.",
"~.^.~.C.C.C.C.C.!.~.~.~.^.^.^.^.).N.N $.F <.<.r.R R U :.;.4 P C.C.B.C.C.C.C.C.C.C.C.C.C.C.C.C.C.C.C.",
"~.~.!.B.C.C.C.G.~.^.!.L.L.P.L.P.W.`.5.c Y t.<.<.q.&.%.<.>.D g.N.C.C.M.B.M.M.M.B.B.B.M.M.M.M.M.C.C.C.",
"~.~.W.G.C.C.B.C.!.~.L.B.C.C.B.G.^.).4.z U y.<.>.&.%.&.r.,.7.n.m.C.C.m.l.l.l.l.M.C.B.l.l.l.l.l.C.C.C.",
"~.~.~.B.B.B.C.G.!.~.P.C.C.C.B.J.^.^.9.J 5 -.r.<.<.:.q.q.1.7.j.m.C.C.m.m.l.l.l.M.C.C.n.l.l.l.l.M.C.C.",
"~.^.~.B.C.C.C.C.~.~.P.C.C.C.C.J.^.^._.j.( ( >.t.<.<.<.t.;.4.n.M.C.B.n.e.l.l.l.M.C.B.l.l.l.l.l.C.C.B.",
"~.^.^.B.B.C.B.C.!.^.L.B.B.C.N.J.^.^.L.C.(.w.m &.y.y.>.-.2.n.l.m.C.C.n.l.l.l.l.m.C.B.l.l.l.l.l.B.C.C.",
"~.^.~.H.J.J.J.K.!.^.P.J.J.J.G.K.^.).K.h.X./ $.m s s Y 8.g.l.m.N.C.C.m.n.m.m.n.M.C.B.n.l.l.l.l.B.C.C.",
"^.~.^.~.^.^.^.^.^.^.^.^.^.^.^.^.).n.d.A.A.i.c.2.H f [ Z.d.p.M.C.C.C.C.C.C.C.C.C.C.B.n.l.l.l.l.B.C.C.",
"^.~.^.~././.^.^.^.^.^.^././.^.^.^.c.F.F.Y.A.p.E i Q v.F.T.F.a.B.C.C.C.C.C.C.C.B.B.B.l.l.l.l.l.B.C.C.",
"^.^.~.L.L.L.L.L.L.L.L.L.L.L.L.P.L.S.T.F.U.F.A.u.8 E O.D.D.Y.z.k.M.M.M.M.M.M.M.B.C.B.n.l.l.l.l.B.C.C.",
"^.^.!.C.B.N.B.C.B.B.B.B.V.C.M.K.L.A.T.D.A.F.D.Y.d @.F.F.v.U.v.g.l.l.k.l.l.l.l.M.C.B.l.l.l.l.l.B.C.B.",
"^.^.~.C.C.C.C.C.C.C.C.C.C.C.C.K.K.s.R.A.O.s.x.p.0 [ R.U.p.D.v.0.n.l.l.l.l.n.l.M.C.B.n.l.l.l.l.C.C.C.",
"~.^.~.C.C.C.C.C.C.C.C.C.C.C.C.K.H.#.R.A.| s.F.[ 8 ~ R.U.p.F.x.#.n.l.l.l.l.l.l.M.C.B.m.m.l.l.l.B.C.C.",
"~.^.!.B.C.B.B.B.B.B.C.B.C.N.N.K.H.u.E.Z.@.v.b.[ q E D.U.p.D.A.g.l.l.l.l.l.e.l.m.C.B.l.e.l.l.l.B.C.C.",
"~.~.~.K.J.J.K.K.K.H.K.K.K.K.K.L.L.A.R.Z.+.F.Y.+.7 k U.D.p.F.v.j.m.m.m.m.M.M.m.M.C.B.M.m.m.m.n.B.C.B.",
"^.~.^.^./.^./.^.).~.^.^.).^.^.^.L.c.D.Z.{ Y.Y.E.E i.E.D.z.R.z.n.C.C.C.C.C.C.C.C.C.C.C.C.C.C.C.C.C.C.",
"/.~.^.^.^.^.^.^.^.^.^.^.^.^.^.(.K.{ | @.W l ^ @.E i.u.O.| A.p.j.C.C.C.C.C.C.C.C.C.C.C.C.C.C.C.C.B.C.",
"~.^.~.J.J.K.K.L.Q./.P.H.K.K.K.K.G.| { p.g   @ 3 O r O X ~ i.@.g.H.C.M.M.M.m.m.m.m.M.M.m.m.m.m.B.C.C.",
"~.^.!.B.B.B.B.C.Q.Q.L.B.C.C.N.C.V.6.&.Y O 0 6 6 $ 6 2 $ D D ! N.C.C.m.e.l.l.l.l.l.l.n.e.l.l.l.C.C.C.",
"~.^.~.C.C.C.C.G.Q.^.W.C.C.C.C.C.V.7.r.q.e * 2 6 O # 0 # q.t.2.N.C.C.m.l.l.l.l.l.l.l.l.l.l.l.l.B.C.C.",
"~.^.W.C.C.C.C.C.Q.^.I.C.C.C.C.C.C.3.R -.m * 6 g # # 0 6 -.-.=.n.C.C.n.l.l.l.l.l.l.l.l.l.l.m.l.C.C.B.",
"~.^.!.C.C.C.C.G.^.^.L.N.C.N.C.V.C.#.P H * 6 * g w $ 0 & F J 9.M.C.C.n.l.l.l.l.l.l.l.l.l.e.m.l.B.C.C.",
"~./.~.C.C.C.C.C.I.Q.W.L.L.L.L.P.P.L.K.8.0 6 * u w * 6 6 ' o.j.M.C.C.M.M.M.m.M.M.m.M.M.m.M.M.M.B.C.C.",
"~.^.~.C.B.C.C.C.~.~.~.^./.^././.~.^.`.n.0 0 6 u 0 0 6 0 g.N.l.M.C.C.C.C.C.C.C.C.C.C.C.C.C.C.C.C.B.C.",
"~.~.~.C.C.C.C.G.~.~.~.^.~.~.~.~.!.!._.j.0 6 6 u 0 6 6 r g.n.l.n.C.C.C.C.C.C.C.C.C.C.C.C.C.C.N.C.C.C.",
"~.~.!.B.C.C.B.G.~.~.L.G.J.J.G.L.~.~.!.f.0 0 % h t 6 6 r g.l.l.M.C.C.m.l.l.n.m.M.C.N.m.n.m.l.n.C.C.C.",
"~.~.W.G.B.C.B.C.~.~.P.B.B.B.N.G.^.~.P.0.0 0 $ j y * 6 r g.l.l.M.C.C.m.l.l.l.l.M.C.C.l.l.l.k.k.C.C.B.",
"~.~.~.B.B.C.B.G.~.^.P.B.B.C.C.J./.^.!.w.0 0 % h y * 6 t g.l.l.m.C.C.m.l.l.l.l.M.C.C.l.l.l.l.l.C.C.C.",
"~.~.~.C.C.C.B.G.~.~.P.B.C.C.B.J.~.!.~.o.6 0 % h 0 6 * r g.n.l.N.C.C.l.l.l.l.l.M.C.C.m.l.l.l.k.C.C.C.",
"~.~.~.B.B.B.B.G.~.~.L.B.B.B.B.J.^.~.(.} 6 0 % f 0 0 * r h.l.l.m.C.C.l.l.l.l.l.m.C.C.l.l.l.k.l.C.C.B.",
"~./.~.L.P.L.P.P.~.~.~.P.P.L.L.P.^.^.^.} 6 0 & f 0 6 * r l.C.m.C.C.C.M.M.M.M.M.C.C.C.n.l.l.l.k.C.C.C.",
"^.^.~.~.^.~./.~.~.~.~.~.~.~.~.~.^.^.^.} * 0 # a w 6 6 w m.C.C.C.C.C.C.C.C.C.C.C.C.N.m.l.l.l.l.C.C.C.",
"^.^.^.~.~.~.~.~.W.~.~.~.~.W.~.^.!.^.!. .6 0 * g r 6 6 r m.C.C.B.C.M.C.C.C.C.C.C.C.N.l.l.l.l.k.C.C.C.",
"^.^.~.B.C.H.B.G.G.G.B.G.H.B.B.L.!.!.!.} 6 0 * g r 6 2 0 e.M.l.n.l.l.n.l.l.n.l.M.C.N.l.l.l.k.l.C.C.C.",
"^.^.~.C.B.B.B.C.B.B.C.C.B.B.B.H.(.!.^.} 6 0 * g r 6 * u h.l.k.l.l.l.k.l.l.l.k.M.C.C.l.l.l.l.k.C.C.C.",
"^.^.~.B.C.C.C.C.C.C.C.C.B.C.C.J.^.!.)./ % 0 % h r 6 $ f n.l.k.l.l.l.l.l.l.l.l.M.C.C.n.k.l.l.l.C.C.C.",
"^.^.^.C.C.C.B.C.C.C.C.C.C.C.C.J.^.!.(.' + : X & O + + # j w.N.l.l.l.l.l.l.l.k.M.C.C.l.l.l.l.l.C.C.C.",
"^.~.~.B.B.C.B.B.C.C.B.B.C.B.C.C.^.!.(. .< < , o = , = o = 4 L j.l.l.l.l.k.l.l.M.C.C.l.k.l.l.l.C.C.C.",
"^.~.~.^.~.~.~.I.~.Q.~.~.~.~.~.~.!.!._._ . X o , < 1 , = < < - ! K.M.C.C.C.C.C.M.C.C.C.C.C.M.C.C.C.C.",
"^.^.~.^.^.^.^.^.^.^.^.^./.^.^.^.^.^.).G._ | G a > + > a 2 : o ( L.B.C.C.C.C.C.C.C.C.C.C.C.C.C.C.C.B.",
").^.~.^.^.^.^.^.~.^.^.^.^.^.~.^.^.^.^.).`.`.`.).H.g.j.H.n.h.h.B.C.C.C.C.C.B.C.C.C.C.B.C.B.C.C.C.C.K."
};
