/* XPM */
static char *_234932cdb9b4e5bd5d119eeb424da1dlbCaYNn7cBMOjp2s[] = {
/* columns rows colors chars-per-pixel */
"50 50 180 2 ",
"   c #120606",
".  c #26120C",
"X  c #2E221E",
"o  c #392219",
"O  c #3D251B",
"+  c #211E26",
"@  c #2C2120",
"#  c #2B262C",
"$  c #362A27",
"%  c #3C2F2D",
"&  c #37312F",
"*  c #352D35",
"=  c #362E39",
"-  c #382F3A",
";  c #363037",
":  c #3C333D",
">  c #43271B",
",  c #45281B",
"<  c #412B22",
"1  c #483329",
"2  c #533324",
"3  c #5A3727",
"4  c #5C3929",
"5  c #4D3C36",
"6  c #4D423D",
"7  c #594136",
"8  c #764D3A",
"9  c #7A513F",
"0  c #3F3640",
"q  c #363949",
"w  c #393F53",
"e  c #403741",
"r  c #423A43",
"t  c #3D435A",
"y  c #464146",
"u  c #484146",
"i  c #4C444B",
"p  c #4E484E",
"a  c #5F534E",
"s  c #404455",
"d  c #5C565B",
"f  c #624E49",
"g  c #7A5A4B",
"h  c #615A5D",
"j  c #795D50",
"k  c #6E615D",
"l  c #595C69",
"z  c #635D62",
"x  c #666165",
"c  c #6B656B",
"v  c #706A6F",
"b  c #78736F",
"n  c #646979",
"m  c #8C5339",
"M  c #90573C",
"N  c #875A46",
"B  c #955D43",
"V  c #9B6147",
"C  c #94634B",
"Z  c #9C654B",
"A  c #8A6757",
"S  c #936652",
"D  c #936B59",
"F  c #A46A4F",
"G  c #AA694B",
"H  c #A96D51",
"J  c #A5745D",
"K  c #A9745C",
"L  c #B77456",
"P  c #BD7756",
"I  c #8E7468",
"U  c #997767",
"Y  c #837873",
"T  c #A47B67",
"R  c #C17B5B",
"E  c #A8806D",
"W  c #B1846E",
"Q  c #A08372",
"!  c #BA8F7A",
"~  c #C88160",
"^  c #CB977E",
"/  c #747A83",
"(  c #7E7E82",
")  c #7B7F8D",
"_  c #8B8584",
"`  c #988B87",
"'  c #9C928E",
"]  c #8A8B92",
"[  c #8E929D",
"{  c #9C9492",
"}  c #97989F",
"|  c #A98D81",
" . c #A6938A",
".. c #BD9988",
"X. c #A89994",
"o. c #A49C9A",
"O. c #BA9E90",
"+. c #AEA29E",
"@. c #B6A096",
"#. c #B8A59D",
"$. c #8F95A1",
"%. c #9599A5",
"&. c #ABA4A3",
"*. c #A3A6AE",
"=. c #B5A9A6",
"-. c #BAB1AD",
";. c #A6AAB4",
":. c #A9ACB6",
">. c #ADB0BA",
",. c #B8B6B8",
"<. c #C59883",
"1. c #CB9B83",
"2. c #D09D84",
"3. c #D4A38B",
"4. c #DCA68C",
"5. c #CBAB9B",
"6. c #DDAA92",
"7. c #E0A98F",
"8. c #E3AC92",
"9. c #ECB297",
"0. c #E6B399",
"q. c #F2B69A",
"w. c #F5BA9E",
"e. c #F8B99B",
"r. c #C4ABA2",
"t. c #C4B4AB",
"y. c #CCB6AD",
"u. c #D5B8AA",
"i. c #C5BAB5",
"p. c #CBBDB6",
"a. c #FABEA2",
"s. c #CBC1BC",
"d. c #D4C2BC",
"f. c #FFC2A5",
"g. c #FFC7AA",
"h. c #FFCBAC",
"j. c #E3C3B4",
"k. c #B7BAC5",
"l. c #B4BAC7",
"z. c #B9BDC9",
"x. c #BEC1CD",
"c. c #BEC3D1",
"v. c #C5C5CD",
"b. c #CAC7C8",
"n. c #D5CAC4",
"m. c #D6CAC6",
"M. c #D9CFCA",
"N. c #DCD2CD",
"B. c #C6C9D4",
"V. c #CBCBD3",
"C. c #CACEDA",
"Z. c #CDD1DD",
"A. c #DFD5D0",
"S. c #D3D2D8",
"D. c #E0D7D1",
"F. c #E4DAD5",
"G. c #E8DDD6",
"H. c #E5DCDA",
"J. c #E9DFDA",
"K. c #E6E0DD",
"L. c #EBE1DC",
"P. c #CFD4E1",
"I. c #D1D6E2",
"U. c #D4D8E6",
"Y. c #D9DEED",
"T. c #DCE1EF",
"R. c #DDE3F2",
"E. c #EEE4E1",
"W. c #F0E6E3",
"Q. c #F2E9E5",
"!. c #F6ECEB",
"~. c #F8EEED",
"^. c #FAF0EF",
"/. c #E1E6F5",
"(. c #E5EAFA",
"). c #E9EFFE",
"_. c #EBF1FF",
"`. c #FEF4F4",
"'. c #FFF7F8",
"]. c #FFFBFB",
/* pixels */
"'.`.`.`.`.`.`.`.`.`.`.`.`.`.`.`.`.`.`.`.`.`.].E.d.@.t.N.!.W.J.L.L.L.L.L.L.J.L.L.J.L.L.J.L.L.L.L.J.!.",
"`.`.`.`.`.`.'.`.`.`.`.`.`.`.`.`.`.`.`.`.`.'.y.K P P H D | i.Q.J.L.L.L.L.L.L.L.L.L.L.L.L.L.L.L.L.L.L.",
"`.`.`.`.`.`.`.`.`.`.`.`.`.`.`.`.`.`.`.`.].=.M P L H F C m Z y.L.L.L.G.L.G.L.J.L.J.L.J.J.L.K.J.L.L.L.",
"`.`.`.L.L.L.L.L.`.`.!.L.L.L.L.L.J.L.L.L.n.C L ~ P P ~ H H G T A.L.L.A.N.N.N.N.N.N.N.N.N.N.N.N.G.L.L.",
"`.`.`.L.L.L.G.L.`.`.~.J.L.J.L.L.J.J.J.Q.@.B H V V C B 8 Z H V n.L.L.F.N.N.N.N.N.N.N.N.N.N.N.N.L.L.G.",
"`.`.`.L.L.L.L.E.`.`.~.J.L.L.L.L.L.L.J.E...G N D g N E <.C 8 C D.L.K.N.N.N.N.N.N.N.N.N.N.N.N.N.J.L.L.",
"`.`.`.L.L.L.L.L.`.`.~.J.L.J.L.J.L.J.W.p.G K 6.a.q.9.h.f.T V R #.L.L.A.N.N.N.N.N.N.N.N.N.N.N.N.L.L.L.",
"`.`.`.L.L.L.L.L.`.`.~.E.E.L.E.L.E.W.M.T G J 0...O.O.8.f.4.N B T F.L.F.N.A.N.N.N.N.N.N.N.N.N.D.L.L.L.",
"`.`.`.L.L.L.J.E.`.`.`.`.`.`.`.`.`.`.!.Q 9 U 3._ Y _ 3.f.8.O U S i.W.J.J.L.J.J.J.J.J.J.J.J.J.J.L.L.L.",
"`.`.`.L.L.L.L.L.`.`.`.`.`.`.`.`.`.`.].X.7 8.9.W ^ ^ f.a.w.U 1.A n.E.L.L.L.L.L.J.L.L.L.L.L.L.L.L.L.L.",
"`.`.`.J.J.L.L.E.`.`.^.!.~.~.!.~.`.`.'.L.U q.q.1.4.w.w.w.f.! N #.Q.J.G.F.F.F.F.J.J.J.G.F.F.F.F.J.L.L.",
"`.`.`.J.L.L.J.E.`.`.!.J.J.L.J.W.`.`.~.L.j.q.f.3.1.3.q.w.g.W B #.L.J.A.N.N.N.N.F.L.J.N.N.N.N.N.J.L.L.",
"`.`.`.J.L.L.J.L.`.`.~.J.L.L.J.W.`.`.!.E.j.e.w.w.9.w.w.f.8.8 U r.L.L.N.N.N.N.N.F.L.J.N.N.N.N.N.J.L.L.",
"`.`.`.L.L.L.L.E.`.`.~.L.L.L.J.W.'.`.!.E.s.8.f.w.a.w.f.9. .` s.E.L.L.D.N.N.N.N.F.L.J.N.N.N.N.N.J.L.G.",
"`.`.`.J.J.L.J.L.`.`.!.J.J.L.J.W.`.`.!.J.L.u.6.q.h.h.3.A t.Q.N.F.L.L.N.N.N.N.N.F.L.L.A.N.N.N.N.J.L.L.",
"`.`.`.W.W.E.E.Q.`.`.~.W.W.W.E.Q.`.`.!.L.G.D.s.| g j A ..{ &.s.A.L.L.F.A.D.N.A.G.L.L.N.N.N.N.N.J.L.L.",
"'.`.`.`.`.'.`.`.`.`.`.`.'.`.`.`.`.`.^.F.z.v.I.$.k T r.B.l.U.I.v.s.E.K.L.L.L.L.L.L.J.N.N.N.N.N.J.L.J.",
"`.`.`.`.`.`.`.`.'.`.'.'.`.`.`.`.`.`.!.,.R.(.T.C._ f / c.I.(.R.R.b.L.L.L.L.L.L.K.J.J.N.N.N.N.N.L.L.L.",
"`.`.`.!.!.!.~.~.!.!.!.!.!.!.!.~.`.'.E.B.(.Y.R.:.n w l.I.R./.R.(.S.N.F.F.G.F.F.G.L.L.N.N.N.N.N.J.L.L.",
"`.'.`.J.J.J.J.J.J.J.J.J.J.J.J.W.`.`.W.Z.R.C.R.(.>.l /.Y.R.P.Y.(.B.n.N.N.N.N.N.F.L.L.A.N.N.N.N.J.L.L.",
"`.`.`.J.L.E.J.L.J.L.L.L.L.L.L.W.`.'.A.P.Y.z.(.).$.s l.B.x.;.I._.,.n.A.N.N.N.N.G.L.G.N.N.N.N.N.J.L.J.",
"`.`.`.E.J.J.L.L.J.L.E.L.L.L.J.W.`.].M.B.Y.x.R.(.) w [ R.c.*.I._.>.s.A.N.N.N.N.F.L.L.N.N.N.N.N.J.L.L.",
"`.'.^.J.J.J.J.J.J.J.J.J.J.J.L.E.`.'.E.P.Y.z.R.R.n t $.P.C.>.P._.>.s.A.N.M.N.M.F.L.J.N.N.N.N.N.L.L.J.",
"`.`.`.W.W.Q.Q.Q.Q.W.Q.Q.Q.Q.W.!.`.'.E.Z.T.l.T.R.n q :.(.R.:.I._.V.n.F.A.A.A.A.G.L.J.F.N.F.D.N.L.L.L.",
"`.`.`.`.'.`.'.`.`.`.`.`.`.`.`.`.`.].!.B.).x.T._.c.) ).(.).%.I.T.B.F.L.L.L.L.L.L.L.L.L.L.L.L.L.L.L.L.",
"`.`.`.`.`.`.`.`.`.`.`.`.].`.`.`.`.].E.x.U.*.:.l.l.( :.] b ( >.*.} N.L.L.L.L.L.G.L.L.L.L.L.L.L.J.L.L.",
"`.`.`.Q.Q.Q.Q.!.`.`.~.Q.Q.Q.Q.Q.Q.!.N.>.l.] X o i $ 6 %   z z.%.&.G.G.D.G.N.F.F.F.A.D.D.F.A.F.J.L.J.",
"`.`.`.J.J.J.J.L.`.`.~.J.J.J.J.J.J.J.E.{ I I * : : * 5 q q # ! 4.u.L.N.M.N.N.N.N.M.N.N.M.M.N.N.J.L.L.",
"`.`.`.L.L.L.J.E.`.`.!.L.L.L.L.L.H.L.E.y.f.q.* 0 : # : e : 5 q.g.u.L.F.N.N.N.N.N.N.N.N.N.N.N.N.J.L.J.",
"`.`.`.J.L.L.L.L.`.`.!.J.L.L.L.J.L.L.G.5.7.6.: r * & z - : A 6.2.r.L.A.N.N.N.N.N.N.N.N.N.N.N.N.J.L.L.",
"`.`.`.J.L.L.L.E.`.`.!.J.J.J.J.J.J.J.L.n.U U * r - y z : r : U Q t.W.N.N.N.N.N.M.M.M.N.N.M.N.N.L.L.L.",
"`.`.`.L.L.L.L.L.`.`.`.!.!.!.!.!.!.!.!.!.n.i.: 0 : y d : e r &.F.L.L.G.F.F.F.F.F.F.F.F.F.F.F.F.G.L.L.",
"`.`.`.L.J.L.L.L.`.`.`.`.`.'.`.'.`.'.`.`.].^.r 0 e r d 0 0 0 ,.L.J.J.L.L.L.L.L.L.L.L.L.L.L.L.L.L.J.L.",
"`.`.`.L.L.L.L.E.`.`.`.`.`.`.`.`.`.`.`.`.'.Q.i : 0 u d : 5 r -.J.L.L.J.L.J.J.J.J.L.L.L.J.J.L.L.J.L.L.",
"`.`.`.J.L.L.J.E.`.`.~.E.W.W.E.!.`.`.~.E.Q.J.p 0 0 p c : r r -.L.L.J.F.A.A.D.D.G.J.J.F.D.D.D.D.J.L.L.",
"`.`.`.L.J.J.J.E.`.`.~.J.J.J.G.E.`.`.!.J.L.F.p 0 : p v = r r -.L.J.J.D.M.N.N.M.F.L.J.N.M.M.M.N.J.L.J.",
"`.'.`.J.J.L.J.E.`.`.^.J.J.L.J.W.`.`.!.L.E.A.i 0 : p v - r r -.L.L.J.D.M.N.N.M.F.L.J.A.N.N.N.N.J.L.L.",
"`.`.`.L.L.L.J.L.`.`.~.J.L.L.J.W.'.`.!.K.E.A.i 0 0 u x - r 0 &.L.J.L.D.N.N.N.N.F.L.J.N.N.N.N.N.J.L.L.",
"`.`.`.J.J.J.J.E.`.`.~.J.J.J.J.W.`.`.!.J.E.A.i 0 0 0 x - r 0 o.L.J.L.D.M.N.N.N.F.L.J.A.M.N.N.N.J.L.L.",
"`.`.`.!.~.~.~.~.`.`.^.!.~.~.~.^.`.'.!.J.E.F.i 5 0 r z ; r 0 &.W.J.J.F.F.F.F.F.J.L.J.A.N.N.N.N.J.L.J.",
"`.`.`.`.`.`.`.`.`.`.`.`.`.`.`.`.`.`.!.J.E.D.u e 0 u h ; 0 : =.Q.J.L.L.L.L.L.L.J.L.J.N.N.N.N.N.J.L.L.",
"`.`.`.`.`.`.`.`.`.`.`.`.`.`.`.`.`.'.!.K.L.A.r 0 0 u h : r : =.W.J.J.J.J.J.J.J.J.J.J.A.N.N.N.N.J.L.J.",
"`.`.`.E.L.E.W.E.L.E.E.W.L.W.J.!.`.`.!.J.W.A.u 0 0 u h : r 0 o.J.N.N.A.N.D.A.N.G.L.J.D.N.N.N.N.J.L.L.",
"`.`.`.L.J.J.L.L.J.J.J.J.J.J.J.E.'.`.!.J.L.G.d : e u d : r : o.F.M.N.N.N.M.N.N.F.L.J.A.M.N.N.N.J.L.L.",
"`.`.`.L.L.L.L.L.L.L.L.L.L.L.L.W.'.`.!.J.L.E.c - 0 i z - r * ' G.M.N.N.N.N.N.N.F.L.J.A.N.N.N.N.J.L.L.",
"`.`.`.L.J.J.L.J.L.L.J.J.J.L.J.W.`.`.!.Q.N.b % $ $ + % @ % $ { G.M.N.N.N.N.N.M.F.L.J.N.M.N.N.N.J.L.L.",
"`.`.`.L.J.L.L.L.L.L.J.L.L.J.J.Q.'.'.W.Q 7 O > > < , , 2 4 3 X.G.M.N.N.N.N.N.N.G.L.J.D.N.N.N.N.J.L.L.",
"`.`.`.`.^.`.`.^.`.`.^.`.`.`.^.`.^.].X.> 3 4 > 2 4 3 2 , o .  .Q.J.J.J.J.J.J.J.J.J.L.J.J.J.J.J.L.L.L.",
"`.`.`.`.`.`.`.'.`.`.`.'.`.`.'.`.`.].+.O 1 5 x 1 % 1 a b { ' M.E.J.L.L.L.L.L.L.L.J.L.L.L.L.L.L.L.L.J.",
"`.`.`.`.`.`.`.`.`.`.`.`.`.`.`.`.`.`.`.K.H.!.].E.A.N.E.!.!.!.E.L.L.J.J.L.L.L.L.L.L.L.L.J.L.L.L.L.J.!."
};
