/* XPM */
static char *_93d4464574145d4fd4affd184fb29dcDRG3jePtgVnMkQH6[] = {
/* columns rows colors chars-per-pixel */
"50 50 200 2 ",
"   c #1D1719",
".  c #1D191D",
"X  c #241D23",
"o  c #272028",
"O  c #2B242C",
"+  c #362E36",
"@  c #372F38",
"#  c #3A3239",
"$  c #442B13",
"%  c #463B3F",
"&  c #69402D",
"*  c #71432E",
"=  c #744935",
"-  c #494347",
";  c #594A44",
":  c #694F46",
">  c #635048",
",  c #7B5948",
"<  c #7D6452",
"1  c #696365",
"2  c #776867",
"3  c #747172",
"4  c #7A7472",
"5  c #844F36",
"6  c #86533A",
"7  c #8B553C",
"8  c #965A3E",
"9  c #8B5840",
"0  c #8A5E4B",
"q  c #925D45",
"w  c #85614F",
"e  c #976046",
"r  c #9D644A",
"t  c #9D684F",
"y  c #866255",
"u  c #8E6654",
"i  c #83695C",
"p  c #946955",
"a  c #996F5D",
"s  c #9D705C",
"d  c #A3664A",
"f  c #A4694E",
"g  c #AB6848",
"h  c #A26E57",
"j  c #AA6E52",
"k  c #B56F50",
"l  c #A4735B",
"z  c #B97455",
"x  c #8A6D6F",
"c  c #8B7368",
"v  c #927568",
"b  c #96796D",
"n  c #866E71",
"m  c #966B7F",
"M  c #8C7472",
"N  c #987F74",
"B  c #A77964",
"V  c #B47C63",
"C  c #C17C5C",
"Z  c #CB7E5E",
"A  c #8F8077",
"S  c #9C867E",
"D  c #AB816E",
"F  c #BB8469",
"G  c #B9866F",
"H  c #A88678",
"J  c #B18A7A",
"K  c #B6907F",
"L  c #C8805E",
"P  c #C5876B",
"I  c #D28463",
"U  c #C78D72",
"Y  c #C88F74",
"T  c #C7927A",
"R  c #D99C7E",
"E  c #9C7D82",
"W  c #8B8786",
"Q  c #968E84",
"!  c #918D8C",
"~  c #978F90",
"^  c #999594",
"/  c #9D9997",
"(  c #A88886",
")  c #A28B8D",
"_  c #B48D86",
"`  c #A79287",
"'  c #A4928A",
"]  c #B49384",
"[  c #B7988A",
"{  c #BE9A8C",
"}  c #AC8B90",
"|  c #A59394",
" . c #A99D96",
".. c #A39D9C",
"X. c #B49E97",
"o. c #BB969C",
"O. c #BFA99F",
"+. c #A69EA1",
"@. c #B69CA1",
"#. c #A2A1A0",
"$. c #ABA5A4",
"%. c #ADABAA",
"&. c #B4A4A4",
"*. c #B3A9A5",
"=. c #BDACA5",
"-. c #B6A6A9",
";. c #B5ACAB",
":. c #B2B0AF",
">. c #BDB1AA",
",. c #AEB3B4",
"<. c #B4B3B2",
"1. c #BDB6B3",
"2. c #BABBBA",
"3. c #C69C89",
"4. c #C29798",
"5. c #CAA08E",
"6. c #C6A396",
"7. c #CDA594",
"8. c #C4A89B",
"9. c #D3AA99",
"0. c #C29CA2",
"q. c #C7A7A7",
"w. c #CBA4AB",
"e. c #CDB1A5",
"r. c #CBB5AD",
"t. c #DCB4A4",
"y. c #D8B8AA",
"u. c #CAAEB2",
"i. c #D2ACB2",
"p. c #CCB5B5",
"a. c #C2B9B4",
"s. c #C8B8B4",
"d. c #C4BCBB",
"f. c #CCBDB9",
"g. c #DDB3BB",
"h. c #D4BAB8",
"j. c #E5B8A7",
"k. c #E2BCAB",
"l. c #E9BBAA",
"z. c #E2B3BB",
"x. c #E6B8BF",
"c. c #C6C0BD",
"v. c #CCC2BE",
"b. c #D3C2BB",
"n. c #EFC1AF",
"m. c #F2C3AF",
"M. c #F4C5B2",
"N. c #F8C7B3",
"B. c #F6C9B6",
"V. c #FBC9B6",
"C. c #FFCEBA",
"Z. c #FFD2BE",
"A. c #E6B7C0",
"S. c #E6BAC3",
"D. c #ECBCC4",
"F. c #F0BCC4",
"G. c #C2C2C1",
"H. c #CBC4C2",
"J. c #C8C8C7",
"K. c #CDCCCB",
"L. c #D3C6C2",
"P. c #D3C9C4",
"I. c #D6CDCB",
"U. c #DACFCA",
"Y. c #D6D0CA",
"T. c #DCD2CD",
"R. c #D4D4D4",
"E. c #DFD5D0",
"W. c #D9D8D7",
"Q. c #DBDBDA",
"!. c #F3C2CA",
"~. c #F9C6CF",
"^. c #FFD4C1",
"/. c #FFDCC7",
"(. c #FAC7D0",
"). c #FDCBD3",
"_. c #E1D7D2",
"`. c #E4DAD5",
"'. c #E5DDDA",
"]. c #E9DFDA",
"[. c #FFD1D9",
"{. c #DEE0DF",
"}. c #E5E0DE",
"|. c #EBE1DC",
" X c #FFDBE3",
".X c #E4E4E4",
"XX c #EEE4E1",
"oX c #EBE8E9",
"OX c #F0E6E3",
"+X c #F2E9E5",
"@X c #F6ECEB",
"#X c #F8EEED",
"$X c #F1F0EE",
"%X c #FBF0EE",
"&X c #F5F4F3",
"*X c #FEF4F4",
"=X c #FEF7F8",
"-X c #FFF9FA",
";X c #FFFCFC",
":X c #FFFEFE",
/* pixels */
"-X*X*X*X*X*X*X*X*X*X*X*X*X*X*X*X*X*X*X*X*X-X:X:X:X+X|.+X+X|.|.|.|.|.].|.|.].|.].|.|.].|.|.|.|.|.].+X",
"*X*X*X*X*X*X=X*X*X*X*X*X*X=X*X*X*X*X*X-X=X`.=.X.*.` H ( *.|.|.|.|.].|.|.|.|.|.|.|.|.|.|.|.|.|.|.|.|.",
"*X*X*X*X*X*X*X*X*X*X*X*X*X*X*X*X*X*X-X_.b q 9 6 7 * g g 6 v _.|.].|.].].].].].].].].].].].].].|.|.|.",
"*X*X*X|.|.|.|.|.*X*X@X|.|.|.|.|.].XXE.p 8 r j C z G 5., z 8 b }.|.].E.T.T.T.E.T.T.T.T.T.T.T.T.].|.|.",
"*X*X*X|.|.|.].|.*X*X#X].].|.|.|.].OXO.d j e f C d 5./.i u r , U.|.|.E.T.T.T.T.T.T.T.T.T.b._.T.].|.|.",
"*X*X*X|.|.|.|.|.*X*X#X|.|.|.|.|.].+XS 6 j r t z 6 9.Z.[ ] f t b.XX].E.T.T.T.T.T.T.T.E.T.E.E.T.].|.|.",
"*X*X*X|.|.|.|.|.*X*X#X|.|.|.|.|.'.+X` 5 L e j k D Z.V.C.n.r f s.XX].E.T.T.T.T.T.T.b._.T.T.T.T.].|.|.",
"*X*X*X|.|.|.|.XX*X*X#X|.XX|.|.|.|.@X8.e h & = 0 n.9.k.6.n.D = P.XX|._.T.E.T.T.T._.E._.E.E.T.E.].|.|.",
"*X*X*X|.|.|.|.XX*X*X*X*X*X*X*X*X*X:X' D 6.b c B.{ 4 2 A y.n.> ;.+X].].].].].].].|.`.|.|.|.|.`.|.|.|.",
"*X*X*X|.|.|.].|.*X*X*X*X*X*X*X*X*XXXp { { Z.Z.Z.T A c M 8.Z.v  .+X|.|.|.|.|.|.|.|.|.|.|.|.|.|.|.|.|.",
"*X*X*X].].|.|.XX*X*X*X@X#X#X@X@X:Xb.k p < j.B.N.V.t.M.3.l.^.<  .+X|.|.`.`.`.`.|.|.`.|.`.`.`.`.|.|.|.",
"*X*X*X|.|.|.].XX*X*X@X].|.].].XX-XQ Z 6 $ 6.C.B.M.{ 4.6.N.Z.< Q +X|.T.U.U.T.T.`.|.|.T.U.T.U.U.|.|.|.",
"*X*X*X].].|.|.|.*X*X#X].|.|.].OX=X_ I D i D Z.M.V.( m ( V.M.i H.OX|.E.T.T.T.T.`.|.|.T.U.T.T.T.|.|.|.",
"*X*X*X|.|.|.|.|.*X*X#X].|.|.].XX-XU.P V P w j.Z.N.m.9.N.^.J t T.|.|.E.T.T.T.T.`.|.|.E.U.T.T.T.|.|.].",
"*X=X*X].].|.].|.*X*X@X].].|.].XX:XL.F s G l l _ V.Z.Z.B.K e z [ OX|.E.U.T.T.T.`.|.|.T.T.T.T.T.`.|.].",
"*X*X*XOXOXOXOX+X*X*X#XOXOXOXXX@X'.T F Y U V v i > ; ; p 7 f P G b.XX_.E.E.E.E.`.|.|.T.T.T.T.T.|.|.|.",
"*X*X*X*X*X*X*X*X*X*X*X*X*X*X*X:XI.R Y Y B ; 2.h.3._ 2 *.( _ s Y  .+X|.|.|.|.|.|.|.|.T.U.T.T.T.|.|.|.",
"*X*X*X*X=X*X=X*X*X*X*X*X*X*X*X=X'.3.P a : ! K.,.) B.s.,.@.D.y F  .+X|.|.|.|.|.|.|.|.T.T.T.T.T.|.|.|.",
"*X*X*X@X@X@X@X@X@X@X@X@X@X@X@X%X#X3.B , 2 } R.$XR.O.>.R.i.D.M a >.|.`.`.`.`.`.|.|.|.T.T.T.T.T.`.|.|.",
"*X*X*X|.].].].|.|.|.|.|.|.|.].+Xb.u N n 0.z.+.&X:X .c.c.g.A.g._ A `.U.T.U.T.Y.`.|.|.E.T.T.T.T.|.|.|.",
"*X*X*X|.|.|.|.|.|.|.|.|.|.|.|.@Xf.x 0.[.~.(.} {.:XR.G.p.F.F.0.i.*.T.T.T.T.T.T.`.|.|.E.T.T.T.T.|.|.|.",
"*X=X*X|.|.|.|.|.|.|.|.|.|.|.|.}.p.F.[.g.z.[.0..X:X{.W.-.F.[.0.i.=.E.Y.T.T.T.T.`.|.`.T.T.T.T.U.|.|.|.",
"*X*X*X|.].].].].].].|.].].'.XXP.A.).D.0.(.A.w.J.J.2.{.-.D.D.0.!. .Y.T.T.T.T.U.`.|.|.T.T.T.T.T.|.|.|.",
"*X*X*X+XOX+X+XOX+X+XXX+X+XXX@XL.S.[.0.E [.F.) G.:X;.oXp.z.S.w.(.O.E._.E._.E.E.].|.|.E.E.E.E._.|.|.`.",
"*X*X*X*X*X*X*X=X*X*X=X*X*X*X-X@Xu.~.x.o.[.).0.K.:X#..Xd.D.D.@.u.E.XX|.|.|.|.|.|.|.|.|.|.|.|.|.|.|.|.",
"*X*X*X*X*X=X*X*X*X*X*X*X*X=X*X-X}.i.z.o.~.).@.K.:X%.&X;.z.D.) _.|.|.|.|.|.|.|.|.|.|.|.|.|.|.|.|.|.|.",
"*X*X*X+X+X+X+X@X*X*X%XOX+X+X+XOX@X].| }  X(.( 1 ~ 1 3 1 g.S.&.|.|.|.`.E._._._.E._.`._._._._._.|.|.|.",
"*X*X*X|.'.|.|.|.*X*X@X].|.|.].].`.OXI.) 0.g.} X o O o + % | L.`.|.|.E.U.T.U.T.T.T.U.T.U.T.U.U.|.|.|.",
"*X*X*X|.|.|.|.|.*X*X@X|.|.|.|.|.|.].#X| . O O # # # # # O *.`._.|.|.E.T.T.T.T.T.T.T.T.T.T.T.T.|.|.|.",
"*X*X*X|.|.|.|.|.*X*X#X|.|.|.|.|.|.].+X+.+ # # + # + + + + %.E.`.|.|.E.U.T.T.T.T.T.T.T.T.T.T.T.|.|.|.",
"*X*X*X|.|.|.|.|.*X*X@X].|.].].].|.`.+X/ O # + + + + + + # 1.E.`.|.|.E.T.T.T.T.U.U.U.T.T.U.U.U.|.|.|.",
"*X*X*X|.|.|.|.XX*X*X%X@X@X@X@X@X@X+X=X..O # + + + + # + # a._._.|.|.`.`.`.`.`.`.`.`.`.`.`.`.`.`.|.|.",
"*X*X*X|.].|.|.|.*X*X*X*X*X=X*X=X*X*X:X+.O # + + + + + + # a.T.`.|.|.|.|.|.|.|.|.|.|.|.|.|.|.|.|.|.|.",
"*X*X*X|.|.|.].XX*X*X*X*X*X*X*X*X=X%X:X..o # # + @ + + + # a.E.`.|.|.|.|.|.|.|.|.|.|.|.|.|.|.|.|.|.|.",
"*X*X*X|.|.|.].XX*X*X#XOXOXOXOX@X*X%X;X~ O # + + + + + + # a.T.`.|.].E.E.T.E.E.`.|.].E.T.T.T.T.|.|.`.",
"*X*X*X|.|.|.].|.*X*X#X].].].'.XX*X%X-XW o # + + # # + + # a.E.`.|.|.E.T.T.T.T.`.|.].T.T.T.T.T.|.|.|.",
"*X*X*X|.|.|.|.XX*X=X#X].].|.|.OX-X%X;X^ o # # + O + # + + a.E.`.|.|.E.T.T.T.T.`.|.|.T.T.T.T.T.|.|.|.",
"*X*X*X|.].|.|.|.*X*X#X].|.|.].OX*X*X@X|.4     - 2 + . X ! T.U.`.|.|.T.T.T.T.T.`.|.|.T.T.T.T.T.|.|.|.",
"*X*X*X|.].|.].XX*X*X#X].].].].OX*X=X$X+Xs.7.] q.&X` 7.{ s.E.Y.`.|.|.T.U.T.T.T.`.|.|.T.T.T.T.T.|.|.|.",
"*X*X*X@X@X@X#X#X*X*X%X#X#X#X@X#X*X*X@X|.>.B.C.s.oXr./.t.H.|.`.].|.].].`.`.`.`.].|.|.T.T.T.T.T.|.|.|.",
"*X*X*X*X*X*X*X*X*X*X*X*X*X*X*X*X*X*X@X|.s.M.m.r.$Xe.C.t.U.XX|.|.|.|.|.|.|.|.|.|.].].T.T.T.T.T.|.|.|.",
"*X*X*X*X*X*X*X*X*X*X*X*X*X*X*X*X*X*X@X|.v.N.m.r.@Xy.C.t.U.|.].|.].|.|.|.|.].].|.|.].T.T.T.T.T.|.|.|.",
"*X*X*XXXXX|.XXXX|.OX|.OXXXXX|.+X*X=X@XXXb.m.m.b.$Xy.C.t.v.E.T.E.T.T.T.T.T.T.T.`.|.].T.T.T.T.T.|.|.|.",
"*X*X*X|.].|.|.|.].].|.].].].].OX*X=X@X|.b.V.N.b.$Xy.Z.t.v.T.T.T.T.T.T.T.T.T.T.`.|.].T.T.T.T.T.|.|.|.",
"*X*X*X|.|.|.|.|.|.|.|.|.|.|.|.OX*X*X@XXXf.y.y.v.*X=.k.8.v.T.T.T.T.T.T.T.T.T.T.`.|.|.T.T.T.T.T.`.|.|.",
"*X*X*X|.].].|.].|.].|.].|.|.].OX=X*X@X|.v.Q.J.d.%XK..X<.c.|.T.T.T.T.T.T.T.T.T.`.|.|.T.T.T.T.T.|.|.|.",
"*X*X*X|.].|.|.|.|.|.].].|.|.].OX*X*X@X|.c.G.<.! 3 / <.%.4 W P.T.T.T.T.T.T.T.T.`.|.].T.T.T.T.T.|.|.|.",
"*X*X*X*X%X*X*X%X*X*X*X*X*X%X*X*X*X*X*X*XI.W.:X&X<./ Q.:XQ.#.%._.|.`.].|.].|.|.`.|.|.|.|.|.`.|.|.|.|.",
"*X*X*X*X*X*X=X*X*X=X*X=X*X=X*X*X*X*X*X:Xv.W G.K.W.! #.K.R.c.! `.XX|.|.|.|.|.|.|.|.].|.|.|.|.|.|.|.`.",
"-X*X*X*X*X*X*X*X*X*X*X*X*X*X*X*X*X=X*X*X*XH.%.$.$.;.#.#...#.1.|.|.|.|.|.].|.|.|.|.|.|.|.].|.|.|.|.@X"
};
