/* XPM */
static char *_4cfc473d4e04f718097b4933baf13e5tsjDm9XoUnJldzBn[] = {
/* columns rows colors chars-per-pixel */
"50 50 190 2 ",
"   c #050303",
".  c #140D0C",
"X  c #181111",
"o  c #261C13",
"O  c #2B211B",
"+  c #32221C",
"@  c #2E2827",
"#  c #342B26",
"$  c #3F302A",
"%  c #393332",
"&  c #3C3838",
"*  c #442E21",
"=  c #4D3927",
"-  c #493428",
";  c #4C3B2C",
":  c #51362A",
">  c #493B34",
",  c #56412D",
"<  c #544235",
"1  c #5E4834",
"2  c #52443B",
"3  c #5C4739",
"4  c #6C4432",
"5  c #634C3C",
"6  c #7A4D37",
"7  c #764D3A",
"8  c #7E503C",
"9  c #494441",
"0  c #4F4A48",
"q  c #585352",
"w  c #68544B",
"e  c #75594C",
"r  c #615C5C",
"t  c #7B6156",
"y  c #74675C",
"u  c #7C6358",
"i  c #686764",
"p  c #7C6C63",
"a  c #7B736A",
"s  c #717471",
"d  c #767976",
"f  c #92583D",
"g  c #855641",
"h  c #8E5C45",
"j  c #925E45",
"k  c #8F614C",
"l  c #966047",
"z  c #9D6247",
"x  c #956049",
"c  c #9C644A",
"v  c #896859",
"b  c #916752",
"n  c #9D6B53",
"m  c #A1664B",
"M  c #A56A4E",
"N  c #AA6B4D",
"B  c #B46E4E",
"V  c #B7704E",
"C  c #A76C52",
"Z  c #AA6E52",
"A  c #B36F50",
"S  c #AE7155",
"D  c #A5715A",
"F  c #AB755C",
"G  c #B57355",
"H  c #BA7554",
"J  c #B5765A",
"K  c #BA7759",
"L  c #B2795E",
"P  c #BD7A5B",
"I  c #886D62",
"U  c #877369",
"Y  c #927365",
"T  c #987869",
"R  c #887B72",
"E  c #907A70",
"W  c #A97861",
"Q  c #A67D6A",
"!  c #AD7E69",
"~  c #B57C61",
"^  c #BD7E61",
"/  c #C07754",
"(  c #C17856",
")  c #C37C5B",
"_  c #85827E",
"`  c #96867B",
"'  c #AA816E",
"]  c #B7826A",
"[  c #AD8472",
"{  c #A9887A",
"}  c #BB8870",
"|  c #B48D7B",
" . c #BB8E7A",
".. c #B3917F",
"X. c #C6805F",
"o. c #C48163",
"O. c #CB8362",
"+. c #C1896F",
"@. c #C2947E",
"#. c #868782",
"$. c #8D8581",
"%. c #868A86",
"&. c #988B84",
"*. c #9C938D",
"=. c #9B9B94",
"-. c #AF8F81",
";. c #AC9185",
":. c #A4968D",
">. c #AE988D",
",. c #B6978A",
"<. c #A99E96",
"1. c #A9A49D",
"2. c #BEA092",
"3. c #BBA59B",
"4. c #B8AAA5",
"5. c #B3ACA9",
"6. c #BAAFAA",
"7. c #BDB2AC",
"8. c #C49983",
"9. c #CB9D85",
"0. c #C19C8D",
"q. c #C09F91",
"w. c #DAA389",
"e. c #CDA392",
"r. c #C4A69A",
"t. c #C2AA9D",
"y. c #CBA99B",
"u. c #D4AA9A",
"i. c #D8B09F",
"p. c #E1AA8F",
"a. c #E3AD93",
"s. c #ECB397",
"d. c #ECB49A",
"f. c #F3BA9E",
"g. c #C9AFA2",
"h. c #D2AFA0",
"j. c #C4B0A7",
"k. c #CAB6AC",
"l. c #CCB5AC",
"z. c #DBB3A3",
"x. c #D2B6AC",
"c. c #C5B7B1",
"v. c #C9BAB4",
"b. c #C5BEBA",
"n. c #CBBFB9",
"m. c #D1BCB6",
"M. c #E2B6A4",
"N. c #E7BAA9",
"B. c #EBBCAA",
"V. c #FBBEA2",
"C. c #CEC2BC",
"Z. c #D7C1B4",
"A. c #D4C3BC",
"S. c #EEC0AE",
"D. c #F0C0AE",
"F. c #F4C4B2",
"G. c #F8C7B4",
"H. c #FAC8B5",
"J. c #FECCB9",
"K. c #FFD1BD",
"L. c #CFC9C6",
"P. c #D2C5C1",
"I. c #D2C9C4",
"U. c #D9CCC6",
"Y. c #D2CCC9",
"T. c #D9CECA",
"R. c #DCD2CD",
"E. c #DFD5D0",
"W. c #DED9D5",
"Q. c #E0D5CF",
"!. c #E1D7D2",
"~. c #E4DAD5",
"^. c #E8DDD7",
"/. c #E5DDD9",
"(. c #E9DFDA",
"). c #E6E0DC",
"_. c #EBE1DC",
"`. c #EEE5E1",
"'. c #EFE9E5",
"]. c #F0E6E3",
"[. c #F2E9E5",
"{. c #F6EDEB",
"}. c #F8EEED",
"|. c #FAF0EF",
" X c #F6EFF0",
".X c #FEF4F4",
"XX c #FEF5F5",
"oX c #FFF7F8",
"OX c #FFFAFA",
"+X c #FFFCFD",
/* pixels */
"OX.X.X.X.X.XOX.X.X.X.X.X.X.X.X.X.X.X.X.X.X+X).Y.'.b.1.C.`._._._._._._._.^._._._._._.^._._._._._.).[.",
".X.X.X.X.X.X.X.X.X.X.X.XoX.X.X.X.X.X.X.XOX5.> , 2 ; , , R /._._.)._._._._._._._._._._._._._._._._._.",
".X.X.X.X.X.X.X.X.X.X.X.X.X.X.X.X.X.X.XOXY., 1 < , 3 < ; = _ _._._._.^._._._.^._._._.).^._._.^._._._.",
".X.X.X_._._._._..X.X{._._._._._._._._.[.` , 5 , Y B.B.{ = ; 7._._._.E.R.R.R.R.R.R.R.R.R.R.R.R._._._.",
".X.X.X_._._.(._..X.X|.(._._._._.(._.(.[.` = - < F.K.J.H.3 O *._._._.E.T.R.R.T.R.T.R.R.R.R.T.R.^._._.",
".X.X.X_._._._.`..X.X}._._._._._._._.(.[.` = o $ M.H.G.G.5 O p _._._.E.R.R.R.R.R.R.R.R.R.R.R.R._._._.",
".X.X.X_._._._._..X.X}.(._._._._.(.(._.(.y * t u d.K.J.K.N.0.2 R._._.E.R.R.R.R.R.R.R.R.R.R.R.R._._._.",
".X.X.X_._._._._..X.X}.`.`._._._.`._.`._.9 # y.B.t.2.,.,.z.z._ /._._.Q.R.E.R.E.R.R.E.R.E.E.R.R._._._.",
".X.X.X_.(._._.`..X.X.X.X.X.X.X.X.X.XoX/.U < _ #.i =.R #._ _ 5._._.^._.^.)._._.^._.)._._._._.~._._._.",
".X.X.X_._._._._..X.X.X.X.X.X.X.X.X.XOXT.e.5 :.%.s 1.;.:.d d =._._.)._._._._._._._._._._._._._._._._.",
".X.X.X_._._.(.`..X.X.X{.}.}.{.}..X.X.X[.v.3 ;.Z.j.3.z.r.3.,.7._._._.^.~.~.~.~._.^._.^.~.~.~.~._._._.",
".X.X.X_.(._._.`..X.X{.(.(._.(.]..X.X{._.(.>.e.B.F.K.r.d.K.G.n./._._.E.T.T.R.T.~._.^.R.T.R.T.T._._._.",
".X.X.X(.(._._._..X.X}._._._.(.]..X.X{.(._.x.K.M.S.G.F.G.H.B.7._._._.R.R.R.R.R.~._._.R.T.R.R.R._._._.",
".XOX.X_._._.(.`..X.X}.(._._.(.]..XOX{.(._.U.y.K.H.F.u.M.J.B.c./._._.E.R.R.R.R.~._._.R.R.R.R.R._._.^.",
".X.X.X_.(.(.(._..X.X{.(.(._.(.]..X.X{.(._.}.L.h.J.K.H.K.J.3.A./._._.E.R.R.R.T.~._._.E.R.R.R.T._._._.",
".X.X.X].].].].[..X.X}.].].].`.[..X.X.X/.R.6.;.w t v v t E C.W._._._.!.E.Q.Q.E.~._._.R.R.R.R.T._._._.",
".X.X.X.XoX.X.X.X.X.X.XoX.X.X.X.X.XOXT.Q J P f 8 a.Y u ' f L ..U._._._._._._._._._.^.R.R.R.R.R._._._.",
"oX.X.X.X.X.XOX.X.XoX.X.XOX.X.X.XoX/.W ) ) P c F 9.U ` Q k H H F R._._._._._._._._.).R.R.R.T.R._._._.",
".X.X.X{.{.{.}.{.{.{.{.{.{.{.{.{.+Xm./ ) ) N N } s.,.>.w.Z M X.S C._.~.~.~.~.~._._._.Q.R.R.R.T.)._._.",
".X.X.X(.(.(.(.(.(.(.(.(.(.(.(._.+Xl.H ) G j m +.f.t.1.p.S M G G 6.E.T.R.T.R.T.~._._.R.R.R.R.R._._./.",
".X.X.X_._._._._.(.(.`.(._._._.].+Xx.V ) G x x ] s.` a @.x G S G k.W.T.R.R.R.R.~._._.R.R.R.R.R._._._.",
".XOX.X_._.(._._.`.(._._._._.(.].+Xt.B o.G 6 P F 9.a =...G c N G j.W.T.R.R.R.R.~._._.E.R.R.R.R.)._._.",
".XoX.X(.(.(.(.(.(.(.(.(.(.(._._.+Xy.G O.G j c ~ a.>.1. .M G S G 3.W.T.R.R.T.R.~._._.R.R.R.R.R._._._.",
".X.X.X].].[.[.[.[.[.[.[.[.].].{.+Xy.V ) Z M G x D.8.T a.x X.N G g.).Q.!.!.Q.R.)._.~.Q.Q.Q.!.Q._._._.",
".X.X.X.X.X.X.XoX.X.XOX.X.X.X.X.X+Xr.H O.c h ) n s.s.9.f.K ) G A 3.[._._._._._._._._._._._._._._._._.",
".X.X.X.XOX.X.X.X.X.X.X.XOX.X.X.XOXr.V O.j g m j V.f.9.f.Z G C B 3.[._._._._._._._._._._._._._._._._.",
".XoX.X].].[.[.{..X.X}.[.[.[.].]. Xq.V ) c c K g e u w t c K j N t.[.!.!.!.E.Q.!.!.~.!.!.!.!.!._._.^.",
".X.X.X(.(.(.(._..X.X}.(.(.(.(.(.`.q.H O.c 4 c 7 = ; > - c z g H g.[.R.T.R.R.R.R.T.R.R.T.R.T.T.)._._.",
".X.X.X_._._._.`..X.X{.(._._.(.(.{.<.- : U I 6 m O.K Z P j 6 6 f 3.[.!.R.R.R.R.R.R.R.R.R.R.R.R._._._.",
".X.X.X_._._.(.`..X.X}.(._._._.(.`.c.i.z.j.-.B ) N W 7 z ) g Y T v._.E.R.R.R.R.R.R.R.R.R.R.R.R._._._.",
".X.X.X(._._.(.`..X.X{.(.(.(.(.(._.A.M.F.q.b ) P J 6.@ N ^ h F.N.>.~.!.T.R.R.R.T.R.T.R.R.T.R.T._._._.",
".X.X.X_._._._._..X.X.X{.{.}.{.{..Xm.e.u.6.{ H ) P 6.5 ) ) h 2.2.C._.).~.~.~.~.!.^.~.~.~.~.!.^.^._._.",
".X.X.X_._._._.`..X.X.X.XoX.XoX.XOX_.l.;.P.-.H ) P 5.e ) ) j ;.4.(.`.(.(._._._._._._._._._._._._._._.",
"oX.X.X_.(._.(.]..X.X.X.X.X.X.X.X.XOX.X].{.| / ) L 5.b ) ) T c./.(.(._.(._.(._.(._._.(.(._._._.(._._.",
".XOX.X_._._.(._..X.X{.].].].].[..X.X.X[.`.| / ) G 5.F ) ) W Y./._.(.~.E.R.!.!./._.(.!.!.E.E.!.(._._.",
".X.X.X(._._.(.`..X.X}.(.(.(.^.]..X.X{.)./. .) ) S 6.~ ) ) Q I.~._.(.E.T.R.R.T.~._.(.R.R.R.T.R.(._.(.",
".X.X.X(.(._._.`..X.X.X(.(.(.(.].oX.X{._._. .( o.S 6.~ ) ) Q I./._._.!.R.R.R.R.~._.(.R.R.R.R.R.(._._.",
".X.X.X_.(._.(._..X.X}.(._.`.(.]..X.X{._.). .( ) S 6.^ ) ) [ Y.~._.(.E.R.R.R.R.~._._.R.R.R.R.R.(._._.",
".XoX.X(.(.(.(.`..X.X}.(.(.(.(.]..X.X{._.(. .( ) C 7.o.P ) [ I./._.(.E.T.R.R.T.~._._.!.R.R.R.R.(._._.",
".X.X.X{.}.}.}.}..X.X}.}.}.{.{.}..X.X{._./. .( ) F n.o.^ ) [ E.(._._./.~.~.~.~.(._.(.R.R.R.R.R.(._._.",
".X.X.X.X.X.X.X.X.X.X.X.X.X.X.X.X.XOX{._./.' ) ) F A.X.P ) [ /._._._._._._._._._._.(.R.R.R.R.R._._._.",
".X.X.X.X.X.X.X.X.X.X.X.X.X.X.X.X.X.X{.(.W.! ) P L I.o.) ) [ E._.(.(._._.(.(.(._.(.(.R.R.R.R.R.(._._.",
".XoX.X_._.`._.].`.`.`._.`.`.`.]..XOX{._.~.! ) ) L P.] ) ) ' Y.!.R.R.R.R.R.Q.R./._.(.R.R.R.R.R._._./.",
".X.X.X_._._._._.(.(.(.(.(.(._.]..X.X{._.~.] ) ) L A.P ) ) Q Y.R.R.R.R.R.R.R.T.~._.(.!.R.R.R.R.(._._.",
".XoX.X_._._._._._._._._._._._.]..X.X{._./.} ( ) ~ v.P P ) Q Y.R.R.R.R.R.R.R.R.~._.(.E.R.R.R.R.(._._.",
".X.X.X_.(._._.(._.(._._.(._.(.]..X.X{._.~.} ) ) ~ c.P ) ) ' L.R.R.R.R.R.R.R.R.~._._.R.R.R.R.R.(._._.",
".X.X.X_._._._._._._./._._.(.(.]..X.X{.`.~.W ) ( D C.~ P G ' W.E.U.R.R.R.R.R.R.~._.(.R.R.R.R.R.(._._.",
".X.X.X.X}..X.X}..X.X.X.X.X.X.X.X.X.X.X.X Xw * ; # i $ + @ @ &.).{._.(.(.(.(.(.(._._.(.(.(.(.(._._._.",
".X.X.X.X.XoX.X.X.X.XoX.X.XoXXXXXXX.X.XXX.X%     X . X X . X . & _ R._._._._._._._._._._._._._._._./.",
"OX.X.X.X.X.XoX.X.X.X.X.X.X.X.X.XXXXXXXXXXX` & q q % % @ 0 9 # @ @ 7.]./._._._._._._._._.(._._._._.{."
};
