/* XPM */
static char *e9064c63f4de405493392afc5dc66679M0AOWzRN30u979dW[] = {
/* columns rows colors chars-per-pixel */
"50 50 195 2 ",
"   c #080506",
".  c #150D0C",
"X  c #1F170F",
"o  c #171819",
"O  c #221F1D",
"+  c #291D18",
"@  c #3A261D",
"#  c #392D23",
"$  c #362F2E",
"%  c #3D322A",
"&  c #3F3837",
"*  c #402B22",
"=  c #443324",
"-  c #4A3425",
";  c #4E3A27",
":  c #45352C",
">  c #4B392C",
",  c #443D3C",
"<  c #54402D",
"1  c #4D413A",
"2  c #564334",
"3  c #5B4332",
"4  c #5F4834",
"5  c #684736",
"6  c #714734",
"7  c #754C39",
"8  c #7C4F3B",
"9  c #474241",
"0  c #4E4846",
"q  c #5C4D45",
"w  c #544B4A",
"e  c #6A4E42",
"r  c #68564A",
"t  c #79594B",
"y  c #6D5A51",
"u  c #655F5C",
"i  c #755C50",
"p  c #7D685D",
"a  c #6A6863",
"s  c #7F736B",
"d  c #787976",
"f  c #85543D",
"g  c #92573C",
"h  c #895740",
"j  c #8D5A43",
"k  c #835B49",
"l  c #935E46",
"z  c #995F44",
"x  c #9B6146",
"c  c #94634B",
"v  c #9C644A",
"b  c #83695C",
"n  c #946A57",
"m  c #9B6D57",
"M  c #A76547",
"N  c #A3664A",
"B  c #A4694D",
"V  c #AC6B4D",
"C  c #B46F4E",
"Z  c #A36E54",
"A  c #AB6E52",
"S  c #B46F50",
"D  c #AD7055",
"F  c #A2735C",
"G  c #AB745B",
"H  c #B57252",
"J  c #BB7453",
"K  c #B47659",
"L  c #BA7759",
"P  c #B8795B",
"I  c #BB795A",
"U  c #84736B",
"Y  c #8E7368",
"T  c #917162",
"R  c #947669",
"E  c #997869",
"W  c #867C75",
"Q  c #A87C66",
"!  c #B47C61",
"~  c #C17654",
"^  c #C17957",
"/  c #C27C5B",
"(  c #7D807F",
")  c #80837F",
"_  c #928279",
"`  c #B3816A",
"'  c #BA8268",
"]  c #A98574",
"[  c #A4897C",
"{  c #B38874",
"}  c #BB8A74",
"|  c #B38E7E",
" . c #C7805F",
".. c #C68161",
"X. c #CA8261",
"o. c #D18764",
"O. c #C38E75",
"+. c #CA947B",
"@. c #898B89",
"#. c #928C86",
"$. c #9E8D84",
"%. c #9E918A",
"&. c #999897",
"*. c #9C9894",
"=. c #A28C81",
"-. c #AB8E81",
";. c #AB9185",
":. c #A3978F",
">. c #AC978C",
",. c #B39183",
"<. c #B99788",
"1. c #B69A8C",
"2. c #A59C92",
"3. c #A69B97",
"4. c #AD9B92",
"5. c #B59E93",
"6. c #BA9E90",
"7. c #B5A096",
"8. c #BCA69B",
"9. c #A5A2A1",
"0. c #ACA9A4",
"q. c #ADABAB",
"w. c #B4ABA5",
"e. c #BBA9A0",
"r. c #B3ACA9",
"t. c #B9AFAB",
"y. c #B7B1AE",
"u. c #BFB2AD",
"i. c #AEAFB0",
"p. c #BBB8B8",
"a. c #BDBCBC",
"s. c #C29681",
"d. c #C79B86",
"f. c #C99B86",
"g. c #C19D8C",
"h. c #C99F89",
"j. c #DA9E82",
"k. c #C19F90",
"l. c #C3A293",
"z. c #C8AA9D",
"x. c #D1A796",
"c. c #DBAA93",
"v. c #D5AD9D",
"b. c #DAAF9E",
"n. c #EEB69B",
"m. c #F2B99D",
"M. c #C8AFA4",
"N. c #CBB3A7",
"B. c #C5B4AC",
"V. c #DAB4A5",
"C. c #D4B6AA",
"Z. c #C3BAB5",
"A. c #CABCB5",
"S. c #C4BDBA",
"D. c #CABFB9",
"F. c #E1B6A5",
"G. c #E5B9A7",
"H. c #E3BCAC",
"J. c #EBBDAB",
"K. c #CBC2BE",
"L. c #DBC2B4",
"P. c #D4C3BC",
"I. c #EAC0AE",
"U. c #F2C2AF",
"Y. c #F4C4B2",
"T. c #FAC9B6",
"R. c #FFCEBA",
"E. c #FFD2B2",
"W. c #FFD2BE",
"Q. c #CEC5C1",
"!. c #CFC9C8",
"~. c #D1C7C4",
"^. c #D3CAC5",
"/. c #D5CDCA",
"(. c #DACEC9",
"). c #D6D0CD",
"_. c #DCD2CD",
"`. c #DED5D0",
"'. c #FFD5C1",
"]. c #E1D6D1",
"[. c #E4DAD5",
"{. c #E8DDD7",
"}. c #E6DDDA",
"|. c #E9DFDA",
" X c #EBE1DC",
".X c #EEE5E1",
"XX c #EFE8E4",
"oX c #F0E6E3",
"OX c #F2E9E5",
"+X c #F6EDEB",
"@X c #F8EEED",
"#X c #FAF0EF",
"$X c #F7F3F7",
"%X c #FEF4F4",
"&X c #FFFAFB",
/* pixels */
"&X%X%X%X%X%X%X%X%X%X%X%X%X%X%X%X%X%X%X%X%X%X&X Xy.w._.K.K. X X X X X X X X X X X X X X X X X X X XXX",
"%X%X%X%X%X%X%X%X%X%X%X%X%X%X%X%X%X%X%X%X%X&X3.2 < < 1 > - s  X X X X X X X X X X X X X X X X X X X X",
"%X%X%X%X%X%X%X%X%X%X%X%X%X%X%X%X%X%X%X%X&Xr.; ; 2 2 2 2 4 ; :.OX X X X X X X X X X X X X X X X X X X",
"%X%X%X X X X X X%X%X+X X X X X X|. X|. X Xr = T G.Y.| < 2 4 y `. X X_._.(.(.(._.(._./.(._._.(. X X X",
"%X%X%X X X X|. X%X%X@X|. X X|. X|.|. XoXK.# % J.W.T.'.b % 4 : /.oX X`.(._._._._._.(._./._._._. X X X",
"%X%X%X X X X X X%X%X@X|. X X X X X X{.+X4.+ > F.T.T.Y.5 X 3 2 _. X X`._._._._._._._._._._._.(. X X X",
"%X%X%X|. X X X.X%X%X@X|.|. X|. X X|.}.OXu T I.R.W.W.T.b U < = K. X X`._._.(._._._._.(._._._._. X X X",
"%X%X%X X X X X X%X%X@X.X.X X.X X.X.X XOXw.[ H.6.| 1.8.v.I.q O K.oX X]._.`._.`._.`.`.`.`._._.`. X X X",
"%X%X%X X X X|. X%X%X%X%X%X%X%X%X%X%X%X&X`.@.d @.U #.d d 9.p q B. X X X[. X X X[. X{. X X X X[. X X X",
"%X%X%X X X X X.X%X%X%X%X%X%X%X%X%X%X%X&X/.) ) @.1.*.) ( 0.p T B. X X X X X X X X X X X X X X X X X X",
"%X%X%X|.|. X|..X%X%X%X+X@X@X@X@X%X%X%X#X}.$.M.1.V.z.N.L.8.2 _ [. X X[.[.].[.[. X X[.[.[.[.[.[. X X X",
"%X%X%X|. X X|. X%X%X+X|.|.|.|.oX%X%X+X|.`.V.W.U.g.T.E.Y.b.] K. X X X].(._._._.[. X X_._._._._. X X X",
"%X%X%X|.|. X|..X%X%X@X|. X X|.oX%X%X+X.X(.,.R.T.U.Y.U.v.W.C.^. X X X_._._._._.[. X[._._._._._.[. X X",
"%X%X%X X X X|..X%X%X@X|. X X|.oX%X%X+X X_.z.W.U.b.I.T.W.F.u._.`. X X]._._._._.[. X X`._._._._. X X X",
"%X%X%X|.|.|.|. X%X%X+X|.|.|.|.oX%X%X+X|. XP.U.W.T.W.R.v.t. X_. X X X_._._._._.]. X X_._._._._. X X X",
"%X%X%XOXOX.XOXOX%X%X@XoXoXoXoXOX%X%X+X XXX).;.r b p T i E 7.Z._.OX X].].].].`.[. X X`._._._._. X X X",
"%X%X%X%X%X%X%X%X%X%X%X%X%X%X%X%X%X%X%X`.6.! z n [ q m.Q g J I Q M. X X X X X X X X|._._._._._.[. X X",
"%X%X%X%X%X%X%X%X&X%X%X%X%X%X%X%X%X%X+X| H I z m [ W f.` v H  .^ V B.XX X X X X X X|._._._._._. X X[.",
"%X%X%X+X@X@X@X@X+X+X+X+X+X+X+X@X#X&XXX` F , z O.k.4.n.+.H v J  .L |  X].].[.[.{. X X_._._._._. X X X",
"%X%X%X|.|.|.|.|.|.|.|.|.|. X}..X%X&X.XF N $ 5 O.6.#.n.j.x l c ..J ] /._._._._.[. X X_._._._._. X X X",
"%X&X%X X X X X X X.X|.|.|.|.|.OX%X%XOXQ M l o Q _ W c.j.B x l / ^ { /._._._._.[. X X_._._._._.[. X X",
"%X%X#X.X X|. X X X X|..X.X|. XOX%X&X Xm N K > , :.) h.+.^ l h X.^ Q !._._._._.[. X X_._._._._. X X X",
"%X%X%X|.}.|.|.|.|.|.|.|.|.|.|..X%X&X[.Z B L l O a 2.c.+.x v j ../ Q ^._._._._.]. X X_._._._._. X X X",
"%X%X%XOXoXOXOXOXOXOXOXOXOXOXOX+X%X%X}.K A / A e o R E.} N L h X.J ` _.].].`.].[. X[.].].].].]. X X X",
"%X%X%X%X%X%X&X%X%X%X%X%X%X&X%X%X%X&X!.A S / S +.y 1 c.} L N f X.^ ` [. X X X X X X X X X X X X X X X",
"%X%X%X%X%X%X%X%X%X%X%X%X%X%X%X%X%X&X~.A A S N +.h.@.4.' x j 8 X.^ ` `..X X X X X X X X X X X X X X X",
"%X%X%XOXOX+X+X+X%X%X#XOX+XOXOXOXOX+X~.L z Z x k q d K.k H D f ..^ ` _.].[.].].].].[.`.].`.].`. X X[.",
"%X%X%X|.|.|.}.|.%X%X+X|.|.|.|.|.}..XD./ N h B 5 : > 9.%.g 7 8 o.^ ` _._._.)._._.(._._._.(._._. X X X",
"%X%X%X X|. X|..X%X%X@X|. X X X X|.oXD.v f 6 h A Z S ! a.t k W 3 ; U ]._._._._._._._._._._._._. X X X",
"%X%X%X X|. X|..X%X%X@X|. X X X X|.oX(.R Y n H L 6 F B ;.r.m e.v.G.8.(._.`._._._._._._._._._._. X X X",
"%X%X%X|. X X|..X#X%X@X|.|.|.|.|.|..XB.x.'.+.H / @ &.O.V q.#.-.Y.b.M.)._._.(.).(._.(._._._.(._.[. X X",
"%X%X%X X|. X X X%X%X%X+X+X+X+X+X+X+X.XC.6.' L X.7 9.O.J Q p.3.V.| 7.[.[.[.[.[.[.[.[.[.[.[.[.[. X X X",
"%X%X%X X X X|..X%X%X%X%X%X%X%X%X%X%X&X(.>.{ J X.v 0.} / J 5.i.;.5.P. X|. X X X X X X X X X X X|. X X",
"%X%X%X X X X X.X%X%X%X%X%X%X%X%X%X%X%X%X$Xl.J X.D r.} ^ / m i.y.|.oX|. X X|. X|. X X|. X X X X X X X",
"%X%X%X|.|. X|..X%X%X@XoXOXoXOX+X%X%X#X X@Xl.J / A 3.} ^ / G 0.a.]. X[.].`.`.].}.|.|.].].`.`.].|. X X",
"%X%X%X X|. X|. X#X%X@X|.|.|.}..X%X%X@X{.XX6.J ..A #.} ^ / ! Z.r.S. X].(._._.(.[. X|._._._.(._.|. X X",
"%X%X%X|.|.|.|..X%X%X@X|.|. X|.OX&X%X+X X.Xl.J ..V #.} / ^ ! /.p.i.].].(.`._._.[. X|._._._._._.|. X X",
"%X%X%X X X X|..X%X%X@X|.|. X|.OX%X%X+X{.OXg.J X.H =.} ^ ^ ! (.(.q.S.}.)._._.(.[. X X]._._._._.|. X X",
"%X%X%X.X|.|.|..X%X%X@X|.|.|.}.oX%X%X@X|.XX6.J / H >.{ ^ / ! ~.|.S.0.(.(._.(.(.[. X|._._._._._. X X X",
"%X%X%X+X+X@X@X@X%X%X#X@X@X+X+X@X%X%X+X{..X6.H ..H 4.<.^ / ! _. X].&.(.}.[.}.}.|. X|._._._._._.|. X X",
"%X%X%X%X%X%X%X%X%X%X%X%X%X%X%X%X%X%X+X|.XX1.H ..S 5.s.^ / D /..XoXS.]. X X X X X X|._._._._._. X X X",
"%X%X%X%X%X%X%X%X%X%X%X%X%X%X%X%X%X%X+X|..X-.S ..H 5.d.~ / A ~..X{. X X X|.|.|. X X|._._._._._.|. X X",
"%X%X%X X X.X XoX.X XoXoXoX X XOX%X%X+X|.XX;.H ..S 4.f.^ / G D.`._._._._._.`._.[. X|._._._._._. X X[.",
"%X&X%X X|. X X|.|.|.|.|.|.|.|.oX%X%X+X|.OX;.S ..S 3.f.J / K A.`._._._._._._._.[. X|.`._._._._.|. X X",
"%X%X%X X|. X X X X X X X X X XoX%X%X+X|.OX;.L / C $.f.J / ! D.`._._._._._._._.[. X X_._._._._.|. X X",
"%X%X%X X X|. X X X|. X|. X X|.oX&X%X+X}.oX;.H X.S [ f.^ / I A.`._._._._._._._.[. X X_._._._._.|. X X",
"%X%X%X X X X|.|. X X X X X X|.oX%X%X+X}.%X>.M I M >.<.J / A w.]._._._._._._._.[. X|._._._._._.|. X X",
"%X%X%X%X@X%X%X%X%X%X#X%X%X#X%X%X%X%X&X%XB., + + + u % # = : Q..X{.|.|.|.|.|.|.|. X X|.|. X|.|. X X X",
"%X%X%X%X%X%X&X%X%X%X%X%X&X%X%X%X%X%X3.w . . . . . . .       Q..X|. X X X X X X X X X X X X X X X X|.",
"%X%X%X%X%X%X%X%X%X%X%X%X%X%X%X%X%X+X9 $ 9 0 u & 9 & 0 u 9 u `.XX X X X|. X|. X X X X|. X|. X X X X+X"
};
