/* XPM */
static char *_e706cf9fc044b4bf873ad1e0f6311edws1fBWW03g1C7mhs[] = {
/* columns rows colors chars-per-pixel */
"50 50 200 2 ",
"   c #050303",
".  c #140D0C",
"X  c #181111",
"o  c #161B1D",
"O  c #261C13",
"+  c #2B211B",
"@  c #32221C",
"#  c #2F2927",
"$  c #2D2928",
"%  c #342B26",
"&  c #3F302A",
"*  c #373535",
"=  c #393332",
"-  c #442E21",
";  c #4A3522",
":  c #4D3927",
">  c #45362D",
",  c #4C352A",
"<  c #4C3B2C",
"1  c #51362A",
"2  c #463B35",
"3  c #56412D",
"4  c #544235",
"5  c #5E4834",
"6  c #52443B",
"7  c #5C4739",
"8  c #6E4734",
"9  c #634C3C",
"0  c #754D3A",
"q  c #7B4E38",
"w  c #7D503B",
"e  c #494441",
"r  c #4F4A48",
"t  c #5D4F47",
"y  c #585352",
"u  c #67544A",
"i  c #775646",
"p  c #615C5C",
"a  c #795F53",
"s  c #7B6156",
"d  c #74675C",
"f  c #7B6359",
"g  c #6A6966",
"h  c #7C6C63",
"j  c #726D6B",
"k  c #79726A",
"l  c #747774",
"z  c #92583D",
"x  c #855641",
"c  c #8A5B45",
"v  c #8B5E49",
"b  c #925E45",
"n  c #9F5E41",
"m  c #8F624E",
"M  c #966047",
"N  c #9D6247",
"B  c #92614A",
"V  c #9B6349",
"C  c #85695C",
"Z  c #906753",
"A  c #A2664B",
"S  c #A56A4E",
"D  c #AB6B4D",
"F  c #B46E4D",
"G  c #B7704E",
"H  c #A46C53",
"J  c #AA6D51",
"K  c #B36F50",
"L  c #AE7256",
"P  c #A57159",
"I  c #AC755C",
"U  c #B57354",
"Y  c #BB7554",
"T  c #B4775A",
"R  c #B97758",
"E  c #B3795D",
"W  c #BD7A5B",
"Q  c #84736C",
"!  c #87776C",
"~  c #927365",
"^  c #997868",
"/  c #9A7869",
"(  c #887B72",
")  c #957D72",
"_  c #A97861",
"`  c #A67D6A",
"'  c #AB7E6A",
"]  c #B57C61",
"[  c #BD7E61",
"{  c #C17754",
"}  c #C17856",
"|  c #C37C5B",
" . c #7F807C",
".. c #85827E",
"X. c #96867B",
"o. c #AA816E",
"O. c #BE8064",
"+. c #B7826A",
"@. c #AD8472",
"#. c #A88879",
"$. c #B88973",
"%. c #BB8E79",
"&. c #BD927D",
"*. c #C8805E",
"=. c #C38163",
"-. c #CA8362",
";. c #C1896F",
":. c #8D8581",
">. c #868984",
",. c #988B84",
"<. c #9C948D",
"1. c #9A9995",
"2. c #AD8F82",
"3. c #AC9185",
"4. c #A2958E",
"5. c #AE988D",
"6. c #B7988A",
"7. c #A59C97",
"8. c #B09D91",
"9. c #A2A49D",
"0. c #ACA29D",
"q. c #BAA399",
"w. c #BBA59B",
"e. c #ADADAD",
"r. c #B1A6A3",
"t. c #BEAEA7",
"y. c #B3ACA9",
"u. c #BAAFAA",
"i. c #B4B1AF",
"p. c #BDB2AC",
"a. c #B3B3B4",
"s. c #BAB6B5",
"d. c #B4B8BA",
"f. c #BEBABA",
"g. c #CB9C85",
"h. c #C19C8D",
"j. c #C09F91",
"k. c #D9A388",
"l. c #CAA291",
"z. c #C4A69A",
"x. c #C2AA9D",
"c. c #CBA99B",
"v. c #D4AB9B",
"b. c #D8B09F",
"n. c #E3AD93",
"m. c #E8AE92",
"M. c #ECB398",
"N. c #F5B99D",
"B. c #C9AFA2",
"V. c #C9B2A6",
"C. c #C8B5AC",
"Z. c #CCB6AD",
"A. c #DBB3A3",
"S. c #D2B6AC",
"D. c #C5B7B1",
"F. c #C7BCB6",
"G. c #CABCB6",
"H. c #C3BEBC",
"J. c #D1BCB6",
"K. c #E2B6A4",
"L. c #E7BAA9",
"P. c #EBBCAA",
"I. c #CDC2BC",
"U. c #D7C1B4",
"Y. c #D4C3BC",
"T. c #EEC0AE",
"R. c #FFC3A6",
"E. c #F4C4B2",
"W. c #F8C7B4",
"Q. c #FAC8B5",
"!. c #FECCB9",
"~. c #FFD1BD",
"^. c #CFC6C1",
"/. c #CFC9C6",
"(. c #D7C9C3",
"). c #D2C9C4",
"_. c #D2CCC9",
"`. c #D9CECA",
"'. c #DCD2CD",
"]. c #DFD5D1",
"[. c #DED9D5",
"{. c #E0D5CF",
"}. c #E1D7D2",
"|. c #E4DAD5",
" X c #E8DDD7",
".X c #E5DDD9",
"XX c #E9DFDA",
"oX c #EBE1DC",
"OX c #F0E5DF",
"+X c #EEE5E1",
"@X c #EFE9E5",
"#X c #F0E6E3",
"$X c #F2E9E5",
"%X c #F6ECEB",
"&X c #F8EEED",
"*X c #FAF0EF",
"=X c #F9EFF0",
"-X c #FEF4F4",
";X c #FFF7F8",
":X c #FFFBFC",
/* pixels */
";X-X-X-X-X-X-X-X-X-X-X-X-X-X-X-X-X-X-X-X;X:X+X_.+XF.0.I.+XoXoXoXoXoXoXoXoXoXoX XoXoXoXoXoXoXoXoX X@X",
"-X-X-X-X-X;X-X-X-X-X-X-X-X-X-X-X-X;X-X-X:Xr.2 3 6 4 3 3 ( oXoXoXoXoXoXoXoXoXoXoXoXoXoXoXoXoXoXoXoXoX",
"-X-X-X-X-X-X-X-X-X-X-X-X-X-X-X-X-X-X-X;X_.3 5 4 3 4 4 : ; ( oXoXoXoX XoX|.oXoXoXoXoX|.oXoXoXoXoXoXoX",
"-X-X-XoXoXoXoXoX-X-X%XoXoXoXoXoXXXoXXX$XX.3 9 3 ~ L.T.#.3 < p.oXoXoX{.'.'.'.'.'.`.'.'.'.'.'.'..XoXoX",
"-X-X-XoXoXoXoXoX-X-X&XXXoXoXXXoXoXXXXX$XX.: > 3 E.!.!.Q.6 + <.oXoXoX'.'.'.'.'.'.'.`.'.'.'.'.'.oXoXoX",
"-X-X-XoXoXoXoXoX-X-X&XoXoXoXoXoXoXoXXX$XX.: O & K.Q.W.E.t + h oXoXoX'.'.'.'.'.'.'.'.'.'.'.'.`.oXoXoX",
"-X-X-XoXoXoXoXoX-X-X&XXXoXXXoXXXoXXXoXXXd - f f K.~.~.~.L.6.6 '.OXoX}.'.'.'.'.'.'.'.'.'.'.'.'.oXoXoX",
"-X-X-XoXoXoXoX+X-X-X&X+XoX+X+XoX+XoX+XoXe % c.L.c.q.6.6.A.A.X.|.oXoX}.'.'.'.'.'.'.{.'.{.'.'.].oXoXoX",
"-X-X-XoXXXoXoX+X-X-X-X-X-X-X-X-X-X-X;X.XQ 6 :.>.g 1.) .. ...y.oXoXoX|.oX XoXoXoXoX|.oXoXoX XoXoXoXoX",
"-X-X-XoXoXoXoXoX-X-X-X-X-X-X-X-X-X-X;X`.l.9 4.>.j 9.6.<.l l 9.oXoXoXoXoXoXoXoXoXoXoXoXoXoXoXoXoXoXoX",
"-X-X-XXXoXoXoXoX-X-X-X%X&X&X%X&X-X-X-X$XG.5 #.U.V.x.A.c.q.6.u.oXoXoXoXoX|.|.|.|.oXoX|.|.|.|.}.oXoXoX",
"-X-X-XoXoXoXoX+X-X-X%XXXoXXXXX#X-X-X&XoXoX3.l.T.E.!.h.K.~.E.I.|.oXoX'.Y.'.'.'.|.oX|.'.'.'.'.'.oXoXoX",
"-X-X-XXXoXoXoXoX-X-X&XXXoXoXXX#X-X-X%XoXoXZ.!.K.T.W.E.Q.Q.T.t.oXoXoX].'.'.'.'.|.oXoX'.'.'.'.'.oXoXoX",
"-X-X-XoXoXoXXX+X-X-X&XXXoXoXXX#X-X;X%X.XOX`.c.~.W.E.v.K.!.T.p.oXoX X].'.'.'.'.|.oXoX'.'.'.'.'.|.oXoX",
"-X;X-XXXXXXXXXoX-X-X%XXXXXoXXX#X-X-X%XoXoX&X^.b.!.~.!.!.!.w.I.oXoXoX].'.'.'.'.|.oXoX'.'.'.'.'.oXoXoX",
"-X-X-X+X#X#X#X$X-X-X&X+X#X#X#X$X-X-X-X.X'.t.3.u s C f a ) I.[.oXoXoX}.].].].].|.oXoX'.'.'.'.'.oXoXoX",
"-X-X-X-X-X-X-X-X-X-X-X;X-X-X-X-X-X:X`.@.T W n 0 n.^ d o.z E 3.(.OXoXoXoXoXoXoXoXoXoX`.`.'.'.'.|.oXoX",
";X-X-X-X;X;X-X;X;X-X-X-X;X-X-X-X;X.XI Y | W M I g.! X.` B Y { I `.oXoXoXoXoXoXoX|.oX].`.'.'.'.oXoXoX",
"-X-X-X%X%X%X%X%X%X%X%X%X%X%X%X%X:XJ.Y *.| J D ;.M.6.5.k.S s E U I.oX|.|.[.oX].oXoXoX].'.'.'.'.oXoXoX",
"-X-X-XXXXXXXXXXXXXXXXXXXXXXXXXoX:XS.U =.U b N ;.N.z.7.m.i * H R t.].`.`.`.'.`.oXoXoX].`.'.'.'.oXoXoX",
"-X-X-XXXXXoXoXoXXXXX+XXXoXoXoX#X:XS.U | Y M M +.M.X.k o.$ c U R C.].'.'.'.'.`.|.oXoX'.'.'.'.'.|.oXoX",
"-X;X-XoX+XXXoXoX+XXX+XXXoXXXoX#X:Xx.F =.U 0 W I g.k 1.= > S S U V.[.'.'.'.'.'.|.oXoX'.'.'.'.'.oXoXoX",
"-X;X-XXXXXXXXXXXXXXXXXXXXXXXXXoX:XB.F | U b A E n.8.j $ B Y L U w.[.`.'.`.'.`.|.oXoX'.'.'.'.'.oXoXoX",
"-X-X-X#X#X$X#X$X$X$X$X#X$X#X#X%X:Xc.G -.J S U m R.%.o ^ H | S U x.oX].].].|.].oXoX|.}.].}.}.}.oXoX.X",
"-X-X-X;X-X;X-X-X-X;X-X;X-X-X-X-X:Xl.Y -.A b [ V n.4 t M.R *.L G w.$XoXoXoXoXoXoXoXoXoXoXoXoXoXoXoXoX",
"-X-X-X-X-X-X;X-X-X-X-X-X-X;X-X-X:Xc.G -.b q J v k * &.R.J U S K q.@XoXoXoXoXoXoXoXoXoXoXoXoXoXoXoXoX",
"-X-X-X#X#X$X$X%X-X-X*X#X#X%X#X#X&X6.U | b H Y v d.j u s V U B D c.@X|.{.|.|.].|.|.}.].{.[.{.[.oXoXoX",
"-X;X-XXXXXXXXXoX-X-X&XXXXXXXXXXX$Xj.{ -.b 8 b 7.r.> & < V B z Y B.@X'.`.`.`.`.`.'.'.'.`.'.'.`.oXoXoX",
"-X-X-XoXoXoXoX+X-X-X&XXXoXoXXX X%X7., 1 ! C s s.T Y J W c q q z w.$X].'.'.'.'.'.'.'.'.'.'.'.'.oXoXoX",
"-X-X-XoXoXoXoXoX-X-X&XXXoXoXoXXX+XD.v.A.V.) i.#.A _ 0 V *.x ~ ^ D.+X].'.'.'.'.'.'.'.'.'.'.'.'.oXoXoX",
"-X-X-XXXoXoXoXoX-X-X&XXXXXXXXX X$XU.K.Q.j.1.w.U W u.$ D | m T.P.5.|.].`.'.'.'.`.`.'.'.'.`.`.`. XoXoX",
"-X-X-XoXXXoXoX+X-X-X&X%X%X&X%X%X-XY.6.A.<.a.P | W u.7 } *.v z.6.I.oXoX|.|.|.|.|.|.}.|.|.|.|.|.oXoX X",
"-X;X-XoXoXoXoX+X-X-X-X-X-X;X-X-X;XoXZ.3.a.2.Y | W y.i | | m ,.w.oXXXXX+XoXoXoXoXoXoXoXoXoXoXoXXX XoX",
"-X-X-XoXXXoXXX+X-X-X-X-X-X-X-X-X-X;X=Xf.a.` | | T y.Z | | _ H.|.+XXXXXXXXXXXoXXXoXoXoXXXoXoXoXoXoXoX",
"-X-X-XXXoXoXXX+X-X-X&X#X#X#X#X$X-X;X].i.f.g.Y | L y._ | } ` _. XXXXX|.}.].].].XXXXXX|.}.'.}.}.XXoXoX",
"-X-X-XXXXXoXXXoX-X-X%XXXXXXX X#X;X=Xf.s.[.2.{ | L u.] | } ` ).|.oXXX].`.'.'.`.|.oXXX'.`.'.`.'.XXoXoX",
"-X;X-XXXXXoXXX+X-X-X&XXXXXoXXX#X:X[.e.^.+X%.} | L u.] | | ' _.|.oXXX].`.'.'.'.|.oXXX'.'.'.'.'.oXoXoX",
"-X-X-XoXoXoXXX+X-X-X&XXX+XXXXX#X*Xa.s.XXoX%.} -.L u.[ W | @._. XoXoX}.'.'.'.`.|.oXXX].'.'.'.'.XXoXoX",
"-X-X-XXXXXXXXX+X-X-X&XXXXXXXXX%X.Xe.[.+X.X%.} | H D.=.| | @._.|.oXoX}.`.'.'.'.|.oXXX}.'.'.'.'.XXoXoX",
"-X-X-X&X&X%X&X&X-X-X*X&X&X%X%X-Xf.a.-XoX.X%.} | I J.[ [ } @.].XXoXXX X|.|.|.|.XXoXXX'.'.'.'.'.XXoX X",
"-X-X-X-X-X-X-X-X-X-X-X-X-X-X-X;Xs..X=XXX.X@.| | T ^.=.W | @..XoXoXoXoXoXoXoXoXoXXXXX].'.'.'.'.XXoXoX",
"-X-X-X-X-X-X-X-X-X-X-X-X-X-X-X-X%X;X%XoX|.' | | I (.=.W | @.[.XXXXXXoXoXXXXXXXoXoXXX'.'.'.'.'.XXoXoX",
"-X-X-XoX+XoXoX#X+X+XoX#XoX+XoX$X;X-X%XoX|.' } } ] ^.O.| } ' _.}.'.'.'.'.'.].'. XoXXX'.'.'.'.'.XXoXoX",
"-X;X-XoXoXoXoXXXXXXXoXXXoXoXXX#X-X-X&XoX|.@.| } ] Y.[ W | o./.'.'.'.'.'.'.'.`.|.oXXX}.'.'.'.'.XXoXoX",
"-X-X-XoXXXoXoXoXoXoXoXoXoXoXoX#X;X-X%XoX X$.} | ] G.W W | ' _.].'.'.'.'.'.'.'.|.oXoX'.'.'.'.'.XXoXoX",
"-X-X-XoXoXXXoXoXoXoXoXXXoXoXXX#X-X-X%XXX|.$.| | ] p.W | | @./.].'.'.'.'.'.'.'.|.oXXX'.'.'.'.'.XXoXoX",
"-X-X-XoXoXoXoXoXoXoXoXoXoXoXoX#X-X;X%X+X|._ } } P I.[ R R ' [.{.`.'.'.'.'.'.'.|.oXXX].'.'.'.'.XXoXoX",
"-X-X-X-X&X-X-X*X-X-X&X-X-X*X-X-X-X-X=X-X=Xu - 1 % g & @ O # ,. X%XoXXXXXXXXXXXXXoXoXXXXXXXXXXXoXoXoX",
"-X-X-X-X;X-X-X;X-X-X;X-X-X;X-X-X-X-X-X;X-X*     X . X X . X . * ..'.oXoXoXoXoXoXoXoXoXoXoXoXoXoXoXXX",
";X-X-X-X-X-X-X-X-X-X-X-X-X-X-X-X-X;X-X-X-X:.* p y % = # r e = # + p.$XoXoXoXoXoXoXoX.XoXoXoXoXoXoX%X"
};
