/* XPM */
static char *e3966642365a4c2fbca58e51b76d8e31ABC7MlNFXVtFPQbL[] = {
/* columns rows colors chars-per-pixel */
"50 50 193 2 ",
"   c #050304",
".  c #140D0C",
"X  c #190F0E",
"o  c #1C150C",
"O  c #1B1515",
"+  c #21160B",
"@  c #2C1D19",
"#  c #3C281C",
"$  c #282120",
"%  c #372B25",
"&  c #37302F",
"*  c #373231",
"=  c #393332",
"-  c #443222",
";  c #4A362A",
":  c #583526",
">  c #533D2D",
",  c #4B3C33",
"<  c #533C32",
"1  c #54402E",
"2  c #45403E",
"3  c #544233",
"4  c #5B4638",
"5  c #6E4532",
"6  c #644D3A",
"7  c #774B36",
"8  c #7A4B36",
"9  c #7F503A",
"0  c #4A4443",
"q  c #5B4C45",
"w  c #565556",
"e  c #655143",
"r  c #655348",
"t  c #6C5B4F",
"y  c #775443",
"u  c #735A4E",
"i  c #605A57",
"p  c #6B625B",
"a  c #786358",
"s  c #696664",
"d  c #786C67",
"f  c #6D706E",
"g  c #75726B",
"h  c #7B7776",
"j  c #82533E",
"k  c #94593E",
"l  c #8B5942",
"z  c #895D4A",
"x  c #935E45",
"c  c #996148",
"v  c #9D6349",
"b  c #816458",
"n  c #84695E",
"m  c #996751",
"M  c #97715E",
"N  c #A26345",
"B  c #A1664B",
"V  c #A5694E",
"C  c #AC6B4D",
"Z  c #B36E4E",
"A  c #B7704E",
"S  c #B9714F",
"D  c #A36C53",
"F  c #AB6E52",
"G  c #B36F50",
"H  c #AD7053",
"J  c #A9745B",
"K  c #B37254",
"L  c #BB7351",
"P  c #B5775A",
"I  c #B97759",
"U  c #B2785E",
"Y  c #BC7A5B",
"T  c #836D60",
"R  c #896F65",
"E  c #88736C",
"W  c #987869",
"Q  c #837972",
"!  c #A87B66",
"~  c #C07654",
"^  c #C67C5A",
"/  c #C37D5C",
"(  c #9A8275",
")  c #998479",
"_  c #AB816E",
"`  c #B5826A",
"'  c #A0877C",
"]  c #A4897B",
"[  c #AC8A7A",
"{  c #B58B76",
"}  c #B58E7B",
"|  c #BA8E79",
" . c #B9927F",
".. c #CB815E",
"X. c #C68160",
"o. c #CB8361",
"O. c #C38569",
"+. c #C4886B",
"@. c #CC8E70",
"#. c #D19173",
"$. c #7F8380",
"%. c #808480",
"&. c #848985",
"*. c #898A84",
"=. c #978A84",
"-. c #8D928F",
";. c #98928D",
":. c #979594",
">. c #9B9A94",
",. c #A58E83",
"<. c #AA8E82",
"1. c #AD9284",
"2. c #A7948B",
"3. c #AC9489",
"4. c #BD9582",
"5. c #B3978A",
"6. c #B59789",
"7. c #BB9A8B",
"8. c #A09690",
"9. c #A49D94",
"0. c #AF9E94",
"q. c #B49E94",
"w. c #ACA19A",
"e. c #B8A297",
"r. c #B3A49B",
"t. c #BBA69D",
"y. c #BEAA9F",
"u. c #A9A6A2",
"i. c #BBAAA2",
"p. c #BDB2AC",
"a. c #C29783",
"s. c #C59C89",
"d. c #C49D8C",
"f. c #CAA18D",
"g. c #D7A48B",
"h. c #C4A394",
"j. c #CBA999",
"k. c #D7A892",
"l. c #D4AB9B",
"z. c #DBAF9E",
"x. c #E3A98D",
"c. c #E8AF93",
"v. c #F0B599",
"b. c #F4BA9E",
"n. c #D3AFA0",
"m. c #C3B2AB",
"M. c #CAB4A8",
"N. c #C8B5AD",
"B. c #DEB4A3",
"V. c #C1B7B2",
"C. c #C5B9B4",
"Z. c #C8BCB6",
"A. c #E3B7A5",
"S. c #E3B9A8",
"D. c #ECBFAD",
"F. c #CDC2BD",
"G. c #DCC0B6",
"H. c #EBC0AF",
"J. c #FEC4A7",
"K. c #F4C2AF",
"L. c #EEC3B1",
"P. c #F4C3B1",
"I. c #F9C6B3",
"U. c #FCCAB6",
"Y. c #FFD1BD",
"T. c #CFC5C1",
"R. c #D4C7C1",
"E. c #D5CBC6",
"W. c #DACCC6",
"Q. c #D5CCC9",
"!. c #DACFCA",
"~. c #D6D0CD",
"^. c #DCD2CD",
"/. c #DFD5D0",
"(. c #DFD8D5",
"). c #E2D5CF",
"_. c #FFDAC6",
"`. c #E0D6D1",
"'. c #E4DAD5",
"]. c #E5DDD9",
"[. c #E9DFDA",
"{. c #E6E0DE",
"}. c #EBE1DC",
"|. c #EEE5E1",
" X c #EFEAEC",
".X c #F0E6E2",
"XX c #F2E9E5",
"oX c #F6EDEB",
"OX c #F8EEED",
"+X c #FBF0ED",
"@X c #FEF4F4",
"#X c #FFF7F9",
"$X c #FFFBFB",
/* pixels */
"#X@X@X@X@X@X@X@X@X@X@X@X@X@X@X@X@X@X@X@X@X@X@X$XoXp.r.!.Q.Z.]..X[.}.}.}.[.}.}.}.}.[.}.}.}.}.}.}.[.oX",
"@X@X@X@X@X@X#X@X@X@X@X#X@X@X@X@X@X@X@X#X@X@X$XQ.t > 1 3 3 ; r T.|.[.}.}.}.}.}.}.}.}.}.}.}.}.}.}.}.[.",
"@X@X@X@X@X@X@X@X@X@X@X+X@XOX@X@X@X@X@X@X+X@X].e - 1 3 3 1 6 1 p [.[.[.].[.[.[.[.[.[.[.[.[.[.[.}.}.}.",
"@X@X@X}.}.}.}.}.@X@XOX|.[.|.}.}.[.}.[.[.}.+X=.# r l.H.j.e 1 6 3 F.|./.^.^.^.^.^.^.^.^.^.^.^.^.[.}.}.",
"@X@X@X}.}.}.[.}.@X@XoX[.[.}.}.[.[.}.[.}.[..Xp + R _.I.Y.4.- 1 3 i.|.^.^.!.^.^.^.^.^.^.^.^.^.^.}.}.[.",
"@X@X@X}.}.}.}.}.@X@XOX[.}.}.}.[.}.}.}.[..XE., @ ( Y.K.Y.[ o % 4 F.XX/.^.^.^.^.^.^.^.^.^.^.^.^.[.}.}.",
"@X@X@X}.}.}.}.}.@X@XoX[.}.}.[.[.[.[.[.].oX;.u z.U.Y.U.Y.[ a 6 - w.XX^.^.^.^.!.^.^.^.^.^.^.^.^.[.}.}.",
"@X@X@X}.}.}.}.}.@X@X+X}.|..X|.}.|.|.|.}.XXE.,.D.h.7.7.t.n.L.W . ;.XX/.^./.^.^.^.^.^.^.`./.^.^.[.}.}.",
"@X@X@X}.[.}.}.|.@X@X@X@X@X@X@X@X@X@X@X@X@XOX:.*.&.Q ) $.s :.) 3 2.}.}.}.}.}.}.}.}.'.}.}.}.'.{.}.[.}.",
"@X@X@X}.}.}.}.}.@X@X@X@X@X#X@X@X@X@X@X@X$X Xh %.%.,.2.-.f u.) W j.'.}.}.}.}.}.}.}.}.}.}.}.}.}.}.}.}.",
"@X@X@X}.}.}.[.|.@X@X+XoXOXOXOXOX@X@XOXOXOXOXC.q.e.l.j.y.M.G.t d F.}.[.'.`.'.'.}.}.'.}.'.'.'.'.}.}.}.",
"@X@X@X}.[.}.}.|.@X@XoX[.[.[.[..X@X@XoX}.}.}.L.U.Y.f.B.Y.H.K.[ y.XX}./.!.^.^.!.'.}.}.^.!.!.!.!.}.}.}.",
"@X@X@X[.[.}.[.}.@X@XoX}.}.}.[..X@X@XoX}.}.}.G.P.I.I.P.U.B.I.L.F.|.}./.^.!./.!.'.}.}.^.!.^.^.^.}.}.}.",
"@X@X@X}.}.}.}.|.@X@XoX}.}.}.[..X@X@XoX}.}.|.G.I.U.z.B.I.U.K.t.'.}.}./.!.^.^.!.'.}.}./.!.^.^.^.}.}.[.",
"@X@X@X}.[.[.[.}.@X@XoX[.}.}.[..X@X@XoX}.}.}.F.S.Y.U.Y.Y.L.e.~.}.}.}./.!.^.^.!.'.}.}./.!.^.^.!.}.}.[.",
"@X@X@X.X.X.X|.XX@X@XoX.X.X.X.XXX@X#XXX{.}.}.{.m.a a b n t T [ F.`.}.'././.)./.'.}.}./.^.^.!.!.}.}.}.",
"@X@X@X@X@X#X#X@X@X@X@X@X@X@X@X@X@X#XOX}.}.N._ P 9 } q #. .7 C X.J 6.'.}.}.}.}.}.}.}.!.!.^.^.^.}.}.}.",
"#X@X@X@X@X@X@X@X@X@X#X@X#X#X@X#X@X@XoX}.y.C ..V M [ h |  .v V ..Y Z } }.}.}.}.}.}.'.^.!.^.^.^.}.}.}.",
"@X@X@XoXoXoXoXOXoXoXoXoXoXoXXXOX@X@XoX}.7.S Y v O.c.9.g.g.H v K X.X.J !.}.{./.}.}.}./.^.^.^.!.}.}.'.",
"@X@X@X[.[.[.[.[.[.[.[.[.[.[.[.|.@X#XoX|.f.C I v #. .>.f.v.V v V I ..U F.^.!.!.{.}.}.^.^.^.!.^.}.}.}.",
"@X@X@X}.}.}.}.}.}.}.}.}.}.}.}..X@X$XoX|.j.N X.x ` ( g j.c.c v V Y ^ U F.^.^.!.'.}.}./.^.^.^.^.}.}.}.",
"@X@X@X}.}.}.}.}.}.}.}.}.}.}.}.|.@X@XoX{.f.N I V +.9.) ( g.H H x Y ^ P F./.!.^.}.}.}.^.^.^.^.!.}.}.}.",
"@X#X@X[.[.[.[.[.[.[.}.[.[.[.[.|.@X@XOX]. .C Y N +.} w.4.x.V v B Y ^ Y F.^.^.W.'.}.}.!.!.!.!.^.}.}.}.",
"@X@X@X.X.XXXXXXXXX.XXXXXXXXX.XoX@X@X+X|.s.A X.C ` k.T b.g.x ..B I ^ Y F.'.(.^.}.}.}.`./.`.`.`.}.}.}.",
"@X@X@X@X@X@X@X@X@X@X#X@X@X@X@X@X@X@X#XoX_ K Y / ` v.{ J.#.H I l I / Y R..X}.}.}.}.}.}.}.}.}.}.}.}.}.",
"@X@X@X@X#X@X@X#X@X@X@X@X#X@X@X@X@X@X#X X! K K C @.b.| U.g.v v 9 I Y Y F.}.}.}.}.}.}.}.}.}.}.}.}.}.}.",
"@X@X@XXXXXXXXXoX@X@X+XXXXXXXXXXXXXXXXX}._ V H C m a t a y v X.c K ..Y F.}.(.`.`.`.'.'././.`./.}.}.}.",
"@X@X@X[.[.[.[.}.@X@XoX].}.[.[.}.}.}.}.(.` A l V j - 1 3 ; x l 5 Y ..Y F./.W.^.^.!.!.!.!.^.!.!.}.}.}.",
"@X@X@X}.}.}.}.}.@X@XoX[.}.}.}.}.}.}.}.'.M k 7 j v V H ....j 8 ) e ; 4 F./.^.^.^.^.^.^.^.^.^.^.}.}.'.",
"@X@X@X}.}.}.}.|.@X@XoX}.}.}.}.}.}.}.}.].3.W b N ..9 z J H ..D w.n.A.h.F.^.!.^.^.^.^.^.^.^.^.^.}.}.}.",
"@X@X@X[.}.}.}.}.@X@X+X].}.[.].}.}.}.}.R.7.Y.4.V o.: w 7.A ..H a H.A.H.F.^.!.W.!.!.!.^.^.!.!.W.}.}.}.",
"@X@X@X}.}.}.}.}.@X@X@XXXoXoXoXoXoXoXoXOXi.7.n K o.N s h.S ..F ;.M.f.7.^.'.{.}.`.}.`.`.{.'.'.'.}.}.}.",
"@X@X@X}.[.}.}.}.@X@X@X#X@X@X#X@X#X@X@X$X'.q.E K X.C d 7.L X.C 8.M.,.m.].}.}.}.}.}.}.}.}.}.}.}.}.[.}.",
"@X@X@X}.}.}.[..X@X@X@X@X@X@X@X@X@X@X@X@X@X$XV.H X.Z E 6.L X.G 0.}./.|.[.}.[.}.}.}.}.}.[.}.[.[.}.}.}.",
"@X@X@X[.}.}.[.|.@X@XoX.X.X.X.XXX@X@X+X}.|.oXC.K ^ G ) <.L / G q.XX[.`./.^.`.`.'.[.[.`.`.`.^.`.[.}.}.",
"@X@X@X}.[.}.[.}.@X@XoX[.[.[.[..X@X@XoX[.[.|.p.K / ~ ] ] L / K t.XX]./.!.^.^.!.'.}.[.^.^.^.^.^.[.}.[.",
"@X@X@X[.[.}.[.|.@X@XOX}.[.[.[..X@X@X+X}.}..XC.K / ~ [ ' L / K i.XX[./.^.^.^.^.'.}.[.^.^.^.^.^.[.}.}.",
"@X#X@X}.}.}.[.|.@X@XOX[.[.|.[..X#X@XoX}.}..XC.P / ~ 4.) L / L t.XX[./.^.^.^.^.'.}.}.^.^.^.^.^.[.}.}.",
"@X@X@X}.[.}.[..X@X@XOX[.[.[.[..X@X@XoX[.}..XC.P / ~ 4.) K X.L t.XX[./.!.^.^.!.'.}.[.`.^.^.^.^.[.}.}.",
"@X@X@XoXoXoXoXoX@X@XOXOXOXOXOXOX@X@XoX[.}.|.V.K / Y s.1.A / K i.XX[.'.'.'.'.'.[.}.[.^.^.^.^.^.[.}.}.",
"@X@X@X@X@X@X@X@X@X@X@X@X@X@X@X@X@X@XoX[.[..XV.H / ~ d.5.A X.G 3.XX[.}.}.}.}.}.[.}.[.^.^.^.^.^.[.}.}.",
"@X@X@X@X@X@X@X+X@X@X@X+X@X@X@X@X@X#XoX[.[..XV.F / ~ f.q.A X.G 2.XX[.}.}.[.[.[.[.}.[.^.^.^.^.^.[.}.}.",
"@X@X@X.X|.|..X.X|..X|..X.X.X|..X@X@XoX[.[..XV.F / ~ s.3.A X.G ,.].^.^.^.^.`.^.[.}.[.^.^.^.^.^.}.}.}.",
"@X@X@X[.].[.[.[.].[.[.[.[.[.]..X#X@XoX[.[..XV.F / ~ 4.3.L / L 6.(.!.^.^.^.^.!.'.}.[.`.^.^.^.^.[.}.}.",
"@X#X@X[.[.}.}.|.[.|.[.|.[.|.[..X@X#XoX[.[..XV.D / ^ } 1.L / L q.(.!.^.^.^.^.^.'.}.}.^.^.^.^.^.[.}.}.",
"@X@X@X[.}.[.}.[.[.[.[.[.[.[.[..X@X@XoX[.[.|.V.H / ^ { ,.L / L 7.(.^.^.^.^.^.^.'.}.}.^.^.^.^.^.[.}.}.",
"@X@X@X[.[.[.|.[.}.}.[.[.[.}.[..X@X@XOX].].OXF.B Y L a.=.C ^ A <./.!.^.^.^.^.^.'.}.[.^.^.^.^.^.[.}.}.",
"@X@X@X@X@X@X+X+X@X@X@X@X@X+X@X@X@X@X@X$X$X(.p @ % @ q 0 # < # =.XX[.[.[.[.[.[.[.}.}.[.[.[.[.[.}.}.}.",
"@X@X@X@X#X@X@X@X@X@X#X@X@X@X@X#X@X@X#XT.g $ . . X O . X .     h +X[.}.}.}.}.}.}.}.}.}.}.}.}.}.}.}.[.",
"#X@X@X@X@X@X@X@X@X@X@X@X@X@X@X@X@X@X$Xh O = = w = & * * i 2 0 u..X[.}.}.}.}.}.}.}.}.}.}.[.}.}.}.}.XX"
};
