/* XPM */
static char *_b9ccdaaa53d4a2aba9e475abea31d61WN4xREVSYqHoom2M[] = {
/* columns rows colors chars-per-pixel */
"100 50 92 1 ",
"  c black",
". c #11100E",
"X c #161513",
"o c #181714",
"O c #1A1917",
"+ c #1D1C1A",
"@ c #201F1D",
"# c #22201E",
"$ c #252422",
"% c #282725",
"& c #292826",
"* c #2D2C2A",
"= c #302F2D",
"- c #32312E",
"; c #353432",
": c #383735",
"> c #3A3937",
", c #3D3C3A",
"< c #403F3D",
"1 c #41403E",
"2 c #454442",
"3 c #484644",
"4 c #494847",
"5 c #4E4D4B",
"6 c #504F4D",
"7 c #51514F",
"8 c #545352",
"9 c #5A5957",
"0 c #5D5C5A",
"q c #605F5D",
"w c #61605E",
"e c #656463",
"r c #696766",
"t c #696967",
"y c #6D6C6A",
"u c #706F6E",
"i c #71716F",
"p c #757574",
"a c #797977",
"s c #7D7C7A",
"d c #807F7D",
"f c #81817F",
"g c #848482",
"h c #898685",
"j c #898987",
"k c #8C8B8A",
"l c #91908F",
"z c #959494",
"x c #999897",
"c c #9D9D9B",
"v c #A1A09E",
"b c #A09FA0",
"n c #A5A4A3",
"m c #A8A8A7",
"M c #A7A7A8",
"N c #AAAAAA",
"B c #B1B0AF",
"V c #B4B3B3",
"C c #B7B8B7",
"Z c #B9B9B7",
"A c #BCBCBB",
"S c #C0C0BE",
"D c #C5C5C4",
"F c #C8C7C7",
"G c #C9C8C7",
"H c #CDCCCB",
"J c #D9CFCA",
"K c #D0D0CF",
"L c #DBD1CC",
"P c #D4D4D3",
"I c #DFD5D0",
"U c #D8D8D7",
"Y c #DCDCDB",
"T c #E1D7D2",
"R c #E4DAD5",
"E c #E7DDD8",
"W c #E9DFDA",
"Q c #EBE1DC",
"! c #E3E3E2",
"~ c #EFE5E1",
"^ c #E8E8E7",
"/ c #EBEBEA",
"( c #F0E6E3",
") c #F2E9E6",
"_ c #F5EBEA",
"` c #F8EEED",
"' c #FAF0EF",
"] c #F2F1F1",
"[ c #FEF4F4",
"{ c #F8F8F7",
"} c #FFF7F8",
"| c #FFF9F9",
/* pixels */
"|[[[[[[[[[[[[[[[[[[[[[[})-$&$%%%%$%$%&%&%%#%%%%%%%%%&&$&&&&$&$&&&&&&%&&&&$-IQQQQQQQQQQEQQQQQQQQQQQQ)",
"[[[[[[[[[[[[[[[[[[[[[}[})-$$$%$%$%%%%$%$%%%%%%%%%%%%$&&$&$$&$&$$$&&%$%&&&$;IQQQQQQQQQQQQQQQQQQQQQQQQ",
"[[[[[[[[[[[[[[[['[[[[['})-@$$%%%%%%%%$%$%%%%%%%%%%%%&$$&&&$$&$&&&&&&&$&$&$;IQQQQQQQQQQQRQQQQRQQQQQQQ",
"[[[QQQW~[[`QWQQQ~QWQWQW__-#%$%$$$$%$$%&%#%%%%%%%%%%$&$&&$$$&&&$$&$&$$%&%&$-IRLLLLIQQLLLLLLLLLLJLJQQQ",
"[[[WWQW~[[`WWWQWQWQQWWE__=#%%$$$$%$%$&$&%%%#%%&%%%&%%$$$$&$&$$&&&&&&&$$&&$-IRLLLLRQQILLLLLLLLLJLLQQQ",
"[[[QQQW~[[`QQQQQQQQQQWE__=#%$%%$$$$%&$&$%$%%%%%%%%$%$%$%$$&$$&&$&$$&&&&&&$;IRLLLLRQQILLLLLLLLLLLJQQQ",
"[[[QWQQ~[[`WQQQQWWWWQQE_/=$%$$$$%%%$$$&$$%%%%%&%$$%%&&$$&&$&$$$&&&&$$&&$&$-IRLLLLRQQILLLLLLLLLLLJQQQ",
"[[[QQQWQ[['Q~Q~QQ~(Q~(Q`_=#%%%$%%$$$&%$&%%%%%%%&%%%%&$&&$$$&&&$&$%&$%&$%&$-IRLLLLIQQILLLLIILILLLIQQQ",
"[[[QQQQ([[[[[[[[[['[[[[[_-#%%%%%$$%%%%%%%%%%%%%%&&$%&&&$&$&&&$&&&&&&&%&&&$-IRLLLLRQQQQEQEQEQQQQQQRQQ",
"[[[QQQQQ[[[[[[[[[[[[[[[}/-#$%%$$$&$$$%%$$$$$%%%#$$%$$$$$$&$$$&$$$$$$$$%&&$-IRLLLLRQQQQQQQQQQQQQQQQQQ",
"[[[WWQQQ[[````_`[[[````')=#&@#%%%%&&&&&&&%&%&&&&&&&&&&&&&&&&&&&&&&&&&&&#%%-RRLLLLRQQQRRERQEQERRRRQQQ",
"[[[QQQQ([[`WQWW~[}_WWWE__=$@5NMMMMMMMMMMmmmmmNMMNNNMNNNNmNNNNNNNNNNNMNBx=#-IRLLLJIQQLLLLJRQELLLLJQQQ",
"[[[QQQQQ[[`QQQW([[_WQQE__=$@x0=>:::;::>>>:>>>,>:::::>>>,>>>>,>,>>>>,>,-ceO;IRJLLLRQQLLLLJRQELLLLJQQQ",
"[[[QQQWQ[[`WQQQ([}_WQQE__=#$z=#$$$@:*@$$%%$#$$$$2-#$$$#O##$%$#$$%$#+$&.ayo-RRLLLJRQQILLLLRQQLLLLLQQQ",
"[[[WWQWQ[[`WWWW~[[_WQQW__=#$z>#&%$1]M+*++O#$+++*C0O@O+-x-@OO@%+OO#$l=%Ofyo;RRJLLJRQQILLLJRQQLLLLJQQQ",
"[[[((((([[`(((()}}`QQQW__=$$z:#&%osYP,+8cx3*jnp&l2<cn6y|f>xv9&ffm4e{g#Odyo;IQIIILEQQRLIIIEQQILLLLRQQ",
"[[[[[[[[[[[[[}[[[[_QQQW)_=#$z:#&%$DrNa@^znpaYuV1!0VBjl9/tjBzY<^jVC8!i$OsyX;IQQQQQQQQQQQQQQQELLLLLQQQ",
"[[[[[[[}[[[[[[[[[[_QQQQ)_=$$z:#&@4]zPAOzDA05ADz;P0yFAp;Y*eMMU2K#eD%G-$+syX;IQQQQQQQQQQQQQQQQTLLLJQQQ",
"[[[`_````_`_``_`[[`WQQQ)_-$$x:#&ozUcN!8zeAHeju]qUyfixY1/9Kza^2U=aH*Y0$+dyO;IQIRRRRRRRRRETQQQLLLLLQQQ",
"[[[WWWWWEQEQQQE~}[`QQQQ)_-#$z:$$#bu.#nekDC06SAc;n5pDCp&mzpSxn2c*0x$vx$OsyX:IRLLLLJJLJLLLJRQQILLLLQQQ",
"[[[QQQQQQQQQQQQ([[_EQQQ)_-#+x:#%%OO#O@$O&%@@#*#$+#+&*+$@$@&+#&#&#O%@$&OdyX;IELLLLLLLLLLLJRQQILLLJRQQ",
"[[[QQQQQQQQQQQQ([[`QQQQ__**6w:#$=cVVc;#%O#&$+@#*n8@@O&%$#@#&%O#Owk#&$&OdyX:IRLLLLLLLLLLLLRQQLLLLLQQQ",
"[[[WWWWWQQQQQQE~[}`QQQR)_*:nga&#=^z0Ub.<e,+&82,=g4+5e-@,,9:@=q8XfD+&%&OsyX-IRJLLJLLLLJJJJRQQLJJLJQQQ",
"[[[))()))((((((`[['(((('/*&iay%$;Yy*Cz2HcH5zUCY2D8pPCG*mDAF&BMKayA+$%&OsyX;IQLIITTTTTTTTTRQERTTTIQQQ",
"[[[[[[}[}[[}[[[[[[[[[}[|)-$80*&$=YKF/,kUyPCP4<!2PtDt.Usms%!,sgDbiA@%$&osyo-TQQQQQQQQQQQQQQQQQQQQQQQQ",
"[[[[[[[[[[[[[[}[[}}[[[[|)*;nnsxg=Y0oHajKejs!61Y4KeDt.PfMy*U8KpVciS@%%&Odyo-TQQQQQQQQQQQQQQQQQQQQQQQQ",
"[[[)()(`[[[())))(~))Q)(')-&kiecp*Y0.Az1KbD5gPBY2P9pUCH&By*P8UzFciZ#%$&osy.-TQTTRTQQQRTTTTRTRTTTTIQQQ",
"[[[QWWWQ[[`WWWQWQQQQQQQ)_-#*p=&*$,*#>:O1t2%ppy!>,;#5e-@<-%2$<q,,-,#%$&oayo-TRJLLJRQQIJLJJJLLJLLJJQQQ",
"[[[QQQQ~[[`QQQQQQQQQQQR__*$#x:@#%2<$%2<@O#%gAAa$#$&+O#&#$%#%@+$$%###%&osyo-TRLLLLRQQILLLLLLLLLLLJQQQ",
"[[[QWQQQ[[`WQQQQQQQQQQQ__-@$z:#$;!KO9|co@@OO+O.+&OO+%#OOo$#O+@$OO#%%#%.stX-TRJLLJRQQILLLLLLLLLLLJQQQ",
"[[[QQQQ~[[`EWEWWQQQQQQR__-$#z;@#;PH2f/x=cnp*ggBt#amz;;bck2>bN9:fz9+%%&osy.-RRLLLJRQQILLJJLLJLLLLJQQQ",
"[[[QWQQQ[[```_`_`)_`)`)[)*@$z;@@>DnpzFz0MsY2!xjU<CiUazFu/eVNsYt^c1#%%&osto-TRLLLJRQQRRRRRRRRRRRRQQQQ",
"[[[QQQQ~[[[[[[[[[[}[}[[}/=@@z;##>DkbcMb4NzK3K5:H,xxHhDp CaKmlNpA++$$$&XstX-IRJLLLRQQQQQQQQQQQQQQQQQQ",
"[[[WWQQQ[[[[[[[[[[[[[[[[_=#$z;@@>Y9/lcncV0!4Y04Ki!7UhzGyYeAcql0K*$$$$&OstX;IRLLLLRQQQQQQQQQQQQQQQQQQ",
"[[[WQQQ~[[`~)(()[[`~)~~`_*@$z;#$;x;l8ri5Vzx2z3>z,vnxt-xkKq,BCs,l%@$$$&XatX-IRLLLJRQQRLLLLEQQLIILIWQQ",
"[[[QQQQQ[[`EQQE~[}`WWWE)_=@$z;@$$+$O@@@@@+O$@#$+#@@+OaNfP4O+#O#+$$$$$$XstX-RRLLLLIQQLLLLJRQELLLLLWQQ",
"[[[QQQQ~[[`QQQQ([[`WQQW__*@#z-+#@$$$#$###$$#$####$#$@=ys3+$$#$##@$@@##.pt.-IELLLLRQQILLLLRQQILLLLWQQ",
"[[[QWQWQ[[`WQQQ(}[`WQQW__*@@z7%=**=*====***-*===*===-&@@%-**-*****-*=-@zwX-IRLLLJRQQILLLLRQQLLLLLQQQ",
"[[[WWQWQ[[`WQQQQ[[_WQQE)_=#O5Mcbccbccccccbbbbbccccvcccvvccccbxccxcccvcvz*@*IRLLLJRQQLLLLJRQQILLLLWQW",
"[[[`_```[['`_'_'[[`WQQE__=@%+#%%%%%&&%%%$&$&%$%%&&&%%%%%%&&&&%%%%%&%%%&+@@-IQRRRREQQEREERQQQLLLLLWQQ",
"[[[[[[[[[[[[[[[[[}_W~~E__*@$$###$########@########@@##@@@##$#@#########$$@-IQQQQQQQQQQQQQQEQILLLLQQQ",
"[[[[[[[[[[[[[[[[[[`WWWW_)*+#$##$#$$$$$$#$$#$#$$$$$$$$#$$#$#$$$$##$$##$$##@=IQQQQQEQEQQQQQQQELLLLLWQW",
"[[[~~QQ~Q(QQQQQ_[}`WQQE__*+$##$#####$##$#$$$#$$$$+$##$$@#$#####$#$##$$#$$#=IRLLLLLLLLILLLRQQLLLLLWQQ",
"[[[QWQQQQQQQQQQ([[_WQWW_)*+$$####$#$##$##$##$###$##$###$###$#$####$$##$##@&IRLLLLLLLLLLLLRQELLLLLQQQ",
"[[[QQQQQQQQQQQQ([[`WQQW)_*+@$$$@#$$####$###$#$##@@$@$#$###$#$########$###@*IRLLLLLLLLLLLLRQQLLLLLWQQ",
"[[[QQQWQQWQWQQQ~[[`WQQW_)*+$+@@@####$########@$##$##@$@@#@@###@$#@########*IRJLLLLLLLLLLLRQELLLLLWQQ",
"[[`QQQQQQQQQQQQ~[[_WQQW_)*+$@@$@#######@@@###$@#@########@####@##########+*IRLLLLLLLLLLLLRQQLLLLLQQQ",
"[[[[['[[['[['[[[[[[['[[[/*+@@$@@#@@@@@$####@##@#$+$####@#@######@########@*IQQQQQQQQQQQEQEQQQQQEWQQQ",
"[[[[[[[[[|[[[[}[[[[[}[[})*O#@@#@@#@@@@@@@@@@###@+###@#@@@+##@#@@@@@#@#@@#+&IQQQQQQQQQQQQQQEQQQQQQQQW",
"|[[[[[[[[[[[[[[[[[[[[[[|_*+@@@@$$@@@$@@@$@@#@@#####@@@@@##@#@@@#@@@@@#@##@=IQQQQQEQQQQQQQQQQQQQQQQQ_"
};
